<?xml version="1.0" encoding="UTF-8" standalone="no"?>
<svg
   xmlns:dc="http://purl.org/dc/elements/1.1/"
   xmlns:cc="http://creativecommons.org/ns#"
   xmlns:rdf="http://www.w3.org/1999/02/22-rdf-syntax-ns#"
   xmlns:svg="http://www.w3.org/2000/svg"
   xmlns="http://www.w3.org/2000/svg"
   xmlns:sodipodi="http://sodipodi.sourceforge.net/DTD/sodipodi-0.dtd"
   xmlns:inkscape="http://www.inkscape.org/namespaces/inkscape"
   width="434"
   height="127"
   viewBox="0 0 434 127"
   fill="none"
   version="1.1"
   id="svg14"
   sodipodi:docname="logo.svg"
   inkscape:version="1.0.1 (1.0.1+r74)">
  <metadata
     id="metadata20">
    <rdf:RDF>
      <cc:Work
         rdf:about="">
        <dc:format>image/svg+xml</dc:format>
        <dc:type
           rdf:resource="http://purl.org/dc/dcmitype/StillImage" />
      </cc:Work>
    </rdf:RDF>
  </metadata>
  <defs
     id="defs18">
    <inkscape:path-effect
       effect="bspline"
       id="path-effect136"
       is_visible="true"
       lpeversion="1"
       weight="33.333333"
       steps="2"
       helper_size="0"
       apply_no_weight="true"
       apply_with_weight="true"
       only_selected="false" />
    <inkscape:path-effect
       effect="bspline"
       id="path-effect134"
       is_visible="true"
       lpeversion="1"
       weight="33.333333"
       steps="2"
       helper_size="0"
       apply_no_weight="true"
       apply_with_weight="true"
       only_selected="false" />
    <inkscape:path-effect
       effect="bspline"
       id="path-effect77"
       is_visible="true"
       lpeversion="1"
       weight="33.333333"
       steps="2"
       helper_size="0"
       apply_no_weight="true"
       apply_with_weight="true"
       only_selected="false" />
    <inkscape:path-effect
       effect="bspline"
       id="path-effect69"
       is_visible="true"
       lpeversion="1"
       weight="33.333333"
       steps="2"
       helper_size="0"
       apply_no_weight="true"
       apply_with_weight="true"
       only_selected="false" />
  </defs>
  <sodipodi:namedview
     pagecolor="#ffffff"
     bordercolor="#666666"
     borderopacity="1"
     objecttolerance="10"
     gridtolerance="10"
     guidetolerance="10"
     inkscape:pageopacity="0"
     inkscape:pageshadow="2"
     inkscape:window-width="1366"
     inkscape:window-height="704"
     id="namedview16"
     showgrid="false"
     inkscape:zoom="0.95149853"
     inkscape:cx="253.68406"
     inkscape:cy="96.519743"
     inkscape:window-x="0"
     inkscape:window-y="0"
     inkscape:window-maximized="1"
     inkscape:current-layer="svg14"
     inkscape:document-rotation="0" />
  <path
     d="m 228.10515,49.669919 c -9.23384,0 -13.1806,4.670022 -13.1806,12.55728 V 89.92957 c 0,1.246947 -0.62378,1.970365 -2.07619,1.970365 h -10.99851 c -1.45318,0 -2.17667,-0.723418 -2.17667,-1.970365 V 39.294796 c 0,-1.246947 0.72349,-1.97624 2.17667,-1.97624 h 9.23384 c 1.35268,0 2.07618,0.729293 2.07618,1.97624 v 8.169544 c 1.76468,-6.740332 6.85233,-10.169282 15.88057,-10.169282 h 3.73496 c 1.34651,0 2.07,0.729292 2.07,1.976162 v 8.428411 c 0,1.346891 -0.72349,1.970288 -2.07,1.970288 z"
     fill="white"
     id="path4-6"
     style="fill:#ffffff;stroke-width:0.772965" />
  <path
     d="m 188.38943,77.06063 c 0,10.275178 -4.56436,14.839305 -15.45698,14.839305 h -26.9788 c -10.79291,0 -15.46316,-4.564127 -15.46316,-14.839305 V 52.16961 c 0,-10.269304 4.67025,-14.839305 15.46316,-14.839305 h 26.9788 c 10.89262,0 15.45698,4.570001 15.45698,14.839305 z M 173.13806,56.104466 c 0,-5.399393 -1.035,-6.434547 -7.46916,-6.434547 h -12.35198 c -6.53388,0 -7.57506,1.035154 -7.57506,6.434547 v 17.015511 c 0,5.393441 1.04118,6.43447 7.57506,6.43447 h 12.35198 c 6.43416,0 7.46916,-1.041029 7.46916,-6.43447 z"
     fill="white"
     id="path6-7"
     style="fill:#ffffff;stroke-width:0.772965" />
  <path
     d="m 90.893039,49.669919 h -5.193552 c -1.352689,0 -2.076184,-0.623397 -2.076184,-1.970288 v -8.404835 c 0,-1.246947 0.723495,-1.97624 2.076184,-1.97624 h 5.188141 v -6.740332 c 0.0054,-10.275195 5.399161,-15.462779 16.086172,-15.462779 h 12.7632 c 1.4524,0 2.07619,0.729316 2.07619,1.970342 v 8.404858 c 0,1.352766 -0.62379,1.970288 -2.07619,1.970288 h -6.74103 c -5.71066,0 -6.85156,1.246947 -6.85156,5.916893 v 3.94073 H 119.737 c 1.4524,0 2.07619,0.729293 2.07619,1.97624 v 8.404835 c 0,1.346891 -0.62379,1.970288 -2.07619,1.970288 H 106.14441 V 89.92957 c 0,1.246947 -0.72349,1.970365 -2.17667,1.970365 H 92.969223 c -1.452402,0 -2.076184,-0.723418 -2.076184,-1.970365 z"
     fill="white"
     id="path8-5"
     style="fill:#ffffff;stroke-width:0.772965" />
  <path
     d="m 281.63839,113.06789 h -22.62082 c -10.16372,0 -14.5217,-3.94057 -14.5217,-13.69848 v -1.035 c -0.0301,-0.27827 0.002,-0.5604 0.0966,-0.82399 0.0935,-0.26435 0.24503,-0.50397 0.44446,-0.70107 0.19865,-0.19711 0.43904,-0.34707 0.70417,-0.43828 0.26512,-0.0912 0.54648,-0.12212 0.82475,-0.0897 h 10.5873 c 1.4524,0 2.1759,0.72968 2.1759,2.07619 v 0.51789 c 0,2.07618 1.14708,2.90557 3.42887,2.90557 h 13.07471 c 6.22314,0 7.78143,-1.55288 7.78143,-6.846151 V 78.566288 c -2.38768,4.670023 -6.95204,7.057944 -14.11588,7.057944 h -10.58653 c -10.79291,0 -15.56906,-4.564127 -15.56906,-14.839305 V 39.294796 c -0.0139,-0.271929 0.0309,-0.543704 0.13217,-0.796618 0.10049,-0.252991 0.25508,-0.481093 0.45219,-0.668847 0.19711,-0.187676 0.43209,-0.330519 0.69026,-0.418715 0.25739,-0.0882 0.53102,-0.119577 0.80156,-0.09206 h 11.10519 c 1.34651,0 2.07618,0.729293 2.07618,1.97624 v 27.578851 c 0,5.39344 1.1409,6.43447 7.57506,6.43447 h 7.88734 c 6.84615,0 9.54611,-2.805477 9.54611,-8.510654 V 39.294796 c 0,-1.246947 0.7235,-1.97624 2.07619,-1.97624 h 11.10982 c 0.2659,-0.02566 0.53412,0.0079 0.78534,0.09824 0.25121,0.09028 0.47924,0.235136 0.66707,0.424126 0.1886,0.18899 0.33314,0.417401 0.42203,0.668769 0.0897,0.251368 0.12291,0.51951 0.0966,0.785101 V 96.56972 c -0.006,10.88722 -5.81734,16.49817 -17.12736,16.49817 z"
     fill="white"
     id="path12-5"
     style="fill:#ffffff;stroke-width:0.772965" />
  <path
     d="m 364.62546,77.06063 c 0,10.275178 -4.56435,14.839305 -15.45698,14.839305 h -26.9788 c -10.79291,0 -15.46317,-4.564127 -15.46317,-14.839305 V 52.16961 c 0,-10.269304 4.67026,-14.839305 15.46317,-14.839305 h 26.9788 c 10.89263,0 15.45698,4.570001 15.45698,14.839305 z M 349.37409,56.104466 c 0,-5.399393 -1.035,-6.434547 -7.46916,-6.434547 h -12.35198 c -6.53387,0 -7.57506,1.035154 -7.57506,6.434547 v 17.015511 c 0,5.393441 1.04119,6.43447 7.57506,6.43447 h 12.35198 c 6.43416,0 7.46916,-1.041029 7.46916,-6.43447 z"
     fill="white"
     id="path6-7-6"
     style="fill:#ffffff;stroke-width:0.772965" />
  <path
     style="fill:#ffffff;fill-opacity:1;stroke:none;stroke-width:0.816506px;stroke-linecap:butt;stroke-linejoin:miter;stroke-opacity:1"
     d="m 385.91675,37.354724 c -2.13101,-0.0027 -6.39371,-0.0081 -8.60127,-0.01428 -2.20757,-0.0062 -2.35985,-0.01312 -2.5365,0.02125 -0.17666,0.03437 -0.37708,0.110204 -0.56366,0.230887 -0.18658,0.120682 -0.35527,0.28267 -0.50586,0.485945 -0.15058,0.203275 -0.27122,0.431782 -0.35017,0.6397 -0.079,0.207918 -0.11367,0.389879 -0.12778,0.671077 -0.0141,0.281198 -0.008,0.661051 -0.008,6.675988 -6.9e-4,6.014936 -0.008,17.662994 -0.005,24.088776 0.003,6.425783 0.018,7.62619 0.0879,8.794285 0.07,1.168094 0.1952,2.303048 0.4068,3.369993 0.2116,1.066945 0.50665,2.056386 0.98192,3.014229 0.47527,0.957842 1.11368,1.850401 1.71247,2.523245 0.59879,0.672843 1.15176,1.117887 1.81348,1.538314 0.66171,0.420426 1.437,0.81891 2.16635,1.140806 0.72936,0.321896 1.43244,0.576024 2.50025,0.796442 1.06782,0.220419 2.50496,0.409014 3.90386,0.488505 1.39891,0.07949 2.75952,0.04999 7.8898,0.06394 5.13028,0.01395 14.02985,0.07133 19.67354,-0.02387 5.64369,-0.0952 8.03143,-0.342907 10.00275,-1.256463 1.97132,-0.913556 3.52708,-2.493152 4.50884,-4.022234 0.98175,-1.529082 1.38987,-3.008666 1.70606,-4.158637 0.31618,-1.149971 0.54065,-1.971196 0.59749,-9.05779 0.0568,-7.086594 -0.0542,-20.448446 -0.10615,-27.17721 -0.052,-6.728765 -0.0451,-6.845543 -0.0605,-7.00935 -0.0154,-0.163807 -0.054,-0.380527 -0.14604,-0.613882 -0.0921,-0.233355 -0.23855,-0.485532 -0.41829,-0.681767 -0.17975,-0.196234 -0.39334,-0.336431 -0.60624,-0.419247 -0.21291,-0.08282 -0.42518,-0.107812 -0.67124,-0.124044 -0.24606,-0.01623 -0.52586,-0.02363 -2.62576,-0.01814 -2.0999,0.0055 -6.01972,0.02389 -8.08272,0.04087 -2.06299,0.01698 -2.26903,0.03259 -2.463,0.0682 -0.19397,0.03561 -0.3756,0.09129 -0.52905,0.169851 -0.15345,0.07856 -0.27829,0.179902 -0.39703,0.311554 -0.11874,0.131652 -0.23118,0.29336 -0.31067,0.466719 -0.0795,0.173359 -0.12598,0.357933 -0.16236,0.552146 -0.0364,0.194212 -0.0635,0.404099 -0.0712,0.961342 -0.008,0.557243 0.003,1.46475 0.007,6.172729 0.003,4.707978 -8.2e-4,13.216074 -0.009,17.771547 -0.008,4.555473 -0.0205,5.158137 -0.0495,5.779844 -0.0289,0.621708 -0.0744,1.26244 -0.2244,1.976972 -0.14997,0.714532 -0.40424,1.503074 -0.72774,2.212087 -0.32351,0.709013 -0.71622,1.338731 -1.27429,1.899517 -0.55808,0.560787 -1.28176,1.052966 -2.04202,1.385648 -0.76025,0.332682 -1.55747,0.505885 -2.28046,0.622769 -0.72299,0.116884 -1.37086,0.177295 -3.36338,0.209334 -1.99253,0.03204 -5.32914,0.0356 -7.41312,6.56e-4 -2.08398,-0.03494 -2.91528,-0.108447 -3.50848,-0.219377 -0.59321,-0.110931 -0.9484,-0.259605 -1.3242,-0.44312 -0.37581,-0.183516 -0.77221,-0.401986 -1.11386,-0.743497 -0.34165,-0.341511 -0.62818,-0.806489 -0.84537,-1.419851 -0.2172,-0.613361 -0.36629,-1.383609 -0.45629,-2.117472 -0.09,-0.733863 -0.12195,-1.443751 -0.12639,-6.73874 -0.004,-5.29499 0.0185,-15.178785 0.0306,-20.407553 0.0121,-5.228769 0.0135,-5.804124 0.003,-6.183706 -0.0107,-0.379581 -0.0337,-0.564382 -0.0722,-0.7397 -0.0385,-0.175318 -0.0927,-0.341203 -0.17679,-0.510698 -0.084,-0.169494 -0.19821,-0.342542 -0.33322,-0.488004 -0.13501,-0.145461 -0.29115,-0.263055 -0.42999,-0.342265 -0.13884,-0.07921 -0.2604,-0.119652 -0.36023,-0.143844 -0.0998,-0.02419 -0.17787,-0.0319 -0.23754,-0.04036 -0.0597,-0.0085 -0.10103,-0.01779 -0.12214,-0.02255 -0.0211,-0.0048 -0.0212,-0.0048 -2.15223,-0.0075 z"
     id="path67"
     sodipodi:nodetypes="ccccccccccccccccccccccccccccccccccccccccccccccccccccccccccccccc"
     inkscape:original-d="m 388.04776,37.357429 c -4.26202,-0.0046 -8.52472,-0.01005 -12.78832,-0.01623 -0.15156,-0.0062 -0.30384,-0.01314 -0.45695,-0.02087 -0.19981,0.07668 -0.40024,0.152498 -0.6016,0.227623 -0.1714,0.166095 -0.34009,0.328085 -0.51633,0.495811 -0.12476,0.238521 -0.24541,0.467025 -0.36935,0.699572 -0.034,0.182976 -0.0687,0.36494 -0.10423,0.546324 0.007,0.380832 0.0136,0.760682 0.0192,1.139883 -0.007,11.650686 -0.0148,23.298743 -0.0233,34.94874 0.0153,1.201559 0.0299,2.401966 0.0437,3.601986 0.12604,1.136104 0.25128,2.271057 0.37578,3.405615 0.29852,0.999258 0.59357,1.988699 0.89313,2.9951 0.65062,0.909331 1.28903,1.80189 1.93249,2.701814 0.55391,0.445955 1.10687,0.891005 1.65922,1.335398 0.77101,0.396662 1.5463,0.795141 2.31051,1.18756 0.69449,0.251515 1.39757,0.505643 2.09523,0.75732 1.43804,0.189384 2.87518,0.37798 4.31166,0.565818 1.36144,-0.02875 2.72205,-0.0582 4.08193,-0.0885 8.90066,0.05813 17.80023,0.115535 26.69919,0.172147 2.38851,-0.246932 4.77625,-0.494636 7.16316,-0.743113 1.55642,-1.578719 3.11218,-3.158312 4.66703,-4.738546 0.4088,-1.478443 0.81692,-2.958029 1.22411,-4.437794 0.22518,-0.820177 0.44964,-1.641406 0.67332,-2.463292 -0.11014,-13.351556 -0.22113,-26.713408 -0.33273,-40.055991 0.008,-0.11487 0.0145,-0.231673 0.0206,-0.3472 -0.0371,-0.212241 -0.0757,-0.428949 -0.11458,-0.64449 -0.14559,-0.251206 -0.29205,-0.503386 -0.43918,-0.756169 -0.21272,-0.139366 -0.42631,-0.279558 -0.6406,-0.420485 -0.21148,-0.02419 -0.42375,-0.04924 -0.63675,-0.07498 -0.27905,-0.007 -0.55886,-0.01399 -0.83945,-0.02218 -3.91919,0.01917 -7.83901,0.03757 -11.75965,0.05519 -0.20528,0.01654 -0.41132,0.03215 -0.61812,0.04684 -0.18089,0.05658 -0.36253,0.112242 -0.54494,0.167053 -0.12407,0.102201 -0.24891,0.203545 -0.37451,0.303999 -0.11168,0.162593 -0.22413,0.324298 -0.33734,0.485136 -0.0458,0.185458 -0.0923,0.370034 -0.13953,0.553737 -0.0235,0.204874 -0.0526,0.414502 -0.0801,0.620443 0.0119,0.90842 0.0231,1.815927 0.0335,2.722584 -0.004,8.509309 -0.008,17.017405 -0.0128,25.524789 -0.0115,0.603578 -0.0237,1.206243 -0.0368,1.808066 -0.0448,0.64163 -0.0903,1.282364 -0.13656,1.922232 -0.25352,0.789445 -0.5078,1.577985 -0.76284,2.365675 -0.39197,0.630616 -0.78468,1.260335 -1.17816,1.889196 -0.72296,0.493075 -1.44664,0.98526 -2.17111,1.47658 -0.79648,0.17408 -1.59369,0.347286 -2.39168,0.519618 -0.64762,0.06678 -1.29599,0.121788 -1.94513,0.181376 -3.33599,0.01237 -6.67261,0.0079 -10.01005,0.01067 -0.83059,-0.07266 -1.66189,-0.146144 -2.49399,-0.220527 -0.35444,-0.147798 -0.70962,-0.296486 -1.06558,-0.446031 -0.39565,-0.217606 -0.79205,-0.436076 -1.18922,-0.655421 -0.28577,-0.464127 -0.5723,-0.929104 -0.8596,-1.394962 -0.14751,-0.760713 -0.29578,-1.53112 -0.44481,-2.297986 -0.0347,-0.700608 -0.0628,-1.410669 -0.0953,-2.117298 0.0237,-9.883317 0.0466,-19.767112 0.0688,-29.651974 0.002,-0.572675 0.003,-1.148031 0.004,-1.723357 -0.0221,-0.183927 -0.0451,-0.368719 -0.0688,-0.554386 -0.0535,-0.165028 -0.10775,-0.330914 -0.16276,-0.497673 -0.11339,-0.172178 -0.22755,-0.345222 -0.34246,-0.519139 -0.15539,-0.116725 -0.31152,-0.234324 -0.46843,-0.352804 -0.12081,-0.03958 -0.24238,-0.07999 -0.36472,-0.12134 -0.0772,-0.007 -0.15524,-0.01461 -0.23401,-0.02311 -0.0406,-0.0087 -0.082,-0.01786 -0.12407,-0.02798 z"
     inkscape:path-effect="#path-effect136" />
  <path
     style="fill:#ffffff;stroke:none;stroke-width:1.34035px;stroke-linecap:butt;stroke-linejoin:miter;stroke-opacity:1"
     d="M 53.734742,20.622575 C 45.507714,20.549369 29.054991,20.40297 19.996983,20.619193 10.938976,20.835415 9.2760184,21.413669 7.8435842,22.168002 6.41115,22.922335 5.2091851,23.852116 4.4043763,25.391455 3.5995676,26.930793 3.1907575,29.079202 3.051727,35.760829 c -0.1390304,6.681627 -0.00858,17.896213 0.063643,24.885066 0.072228,6.988852 0.086244,9.751653 0.8822332,11.763658 0.7959892,2.012005 2.3740651,3.274584 4.2217522,3.970633 1.8476873,0.696049 3.9659503,0.825481 11.3967593,0.927885 7.43081,0.102404 20.173702,0.177705 28.090587,0.628895 7.916886,0.45119 11.006983,1.278472 13.620003,2.478046 2.61302,1.199575 4.748126,2.771285 6.208282,4.164538 1.460156,1.393252 2.244845,2.607464 2.779687,3.459122 0.534841,0.851658 0.819788,1.340651 1.016061,1.667003 0.196273,0.326353 0.303905,0.490162 0.360682,-0.190158 0.05678,-0.68032 0.06291,-2.205736 0.03101,-10.289008 -0.0319,-8.083273 -0.101928,-22.745004 -0.138778,-32.331515 -0.03685,-9.586511 -0.04056,-14.107923 -0.143649,-16.808568 -0.103089,-2.700646 -0.305777,-3.580042 -0.588755,-4.41251 -0.282978,-0.832467 -0.6546,-1.635569 -1.298599,-2.314145 -0.643999,-0.678576 -1.563824,-1.240751 -2.423752,-1.616734 -0.859928,-0.375983 -1.659312,-0.56575 -2.361565,-0.689682 -0.702254,-0.123932 -1.30712,-0.182138 -1.758665,-0.230807 -0.451545,-0.04867 -0.749796,-0.08776 -0.898349,-0.107233 -0.148553,-0.01947 -0.148549,-0.01953 -8.375577,-0.09274 z"
     id="path75"
     inkscape:original-d="M 61.96177,20.695781 C 45.507702,20.550711 29.054979,20.404319 12.603601,20.256582 10.939245,20.83619 9.2762884,21.414445 7.6146455,21.991371 6.4113013,22.922531 5.209333,23.852307 4.0086864,24.780762 3.5985203,26.930594 3.1897145,29.079004 2.7822306,31.226123 2.9113312,42.442472 3.0417922,53.657058 3.173575,64.870508 c 0.012599,2.764246 0.026667,5.527047 0.042049,8.288558 1.5767945,1.26396 3.1548722,2.526536 4.734318,3.787807 2.117012,0.130816 4.235277,0.260211 6.354924,0.388306 12.742051,0.07668 25.484943,0.151942 38.22942,0.225907 3.088877,0.828657 6.178974,1.655938 9.270479,2.481898 2.133847,1.573115 4.268954,3.144824 6.405437,4.715218 0.783377,1.215611 1.568076,2.429816 2.35412,3.642714 0.283608,0.490338 0.568554,0.979331 0.854837,1.466971 0.106298,0.16516 0.213934,0.328966 0.322906,0.491444 0.0046,-1.52414 0.01082,-3.049556 0.0184,-4.576347 -0.07135,-14.639741 -0.141306,-29.301473 -0.209953,-43.954231 -0.0046,-4.520269 -0.0087,-9.041681 -0.01113,-13.564539 -0.204032,-0.878073 -0.406726,-1.757468 -0.608068,-2.6382 -0.36882,-0.781892 -0.73628,-1.58692 -1.102403,-2.382378 -0.92122,-0.560871 -1.841048,-1.123041 -2.759562,-1.686579 -0.800753,-0.188426 -1.600138,-0.378189 -2.398202,-0.569312 -0.606213,-0.05681 -1.211081,-0.115002 -1.814612,-0.17462 -0.299601,-0.0378 -0.59785,-0.07691 -0.894769,-0.117282 z"
     inkscape:path-effect="#path-effect134" />
</svg>
