<?xml version="1.0" encoding="UTF-8" standalone="no"?>
<svg
   xmlns:dc="http://purl.org/dc/elements/1.1/"
   xmlns:cc="http://creativecommons.org/ns#"
   xmlns:rdf="http://www.w3.org/1999/02/22-rdf-syntax-ns#"
   xmlns:svg="http://www.w3.org/2000/svg"
   xmlns="http://www.w3.org/2000/svg"
   xmlns:sodipodi="http://sodipodi.sourceforge.net/DTD/sodipodi-0.dtd"
   xmlns:inkscape="http://www.inkscape.org/namespaces/inkscape"
   width="434"
   height="127"
   viewBox="0 0 434 127"
   fill="none"
   version="1.1"
   id="svg14"
   sodipodi:docname="favicon.svg"
   inkscape:version="1.0.1 (1.0.1+r73)">
  <metadata
     id="metadata20">
    <rdf:RDF>
      <cc:Work
         rdf:about="">
        <dc:format>image/svg+xml</dc:format>
        <dc:type
           rdf:resource="http://purl.org/dc/dcmitype/StillImage" />
      </cc:Work>
    </rdf:RDF>
  </metadata>
  <defs
     id="defs18">
    <inkscape:path-effect
       effect="bspline"
       id="path-effect922"
       is_visible="true"
       lpeversion="1"
       weight="33.333333"
       steps="2"
       helper_size="0"
       apply_no_weight="true"
       apply_with_weight="true"
       only_selected="false" />
    <inkscape:path-effect
       effect="bspline"
       id="path-effect888"
       is_visible="true"
       lpeversion="1"
       weight="33.333333"
       steps="2"
       helper_size="0"
       apply_no_weight="true"
       apply_with_weight="true"
       only_selected="false" />
    <inkscape:path-effect
       effect="bspline"
       id="path-effect136"
       is_visible="true"
       lpeversion="1"
       weight="33.333333"
       steps="2"
       helper_size="0"
       apply_no_weight="true"
       apply_with_weight="true"
       only_selected="false" />
    <inkscape:path-effect
       effect="bspline"
       id="path-effect134"
       is_visible="true"
       lpeversion="1"
       weight="33.333333"
       steps="2"
       helper_size="0"
       apply_no_weight="true"
       apply_with_weight="true"
       only_selected="false" />
    <inkscape:path-effect
       effect="bspline"
       id="path-effect77"
       is_visible="true"
       lpeversion="1"
       weight="33.333333"
       steps="2"
       helper_size="0"
       apply_no_weight="true"
       apply_with_weight="true"
       only_selected="false" />
    <inkscape:path-effect
       effect="bspline"
       id="path-effect69"
       is_visible="true"
       lpeversion="1"
       weight="33.333333"
       steps="2"
       helper_size="0"
       apply_no_weight="true"
       apply_with_weight="true"
       only_selected="false" />
  </defs>
  <sodipodi:namedview
     pagecolor="#ffffff"
     bordercolor="#666666"
     borderopacity="1"
     objecttolerance="10"
     gridtolerance="10"
     guidetolerance="10"
     inkscape:pageopacity="0"
     inkscape:pageshadow="2"
     inkscape:window-width="1366"
     inkscape:window-height="704"
     id="namedview16"
     showgrid="false"
     inkscape:zoom="0.95149853"
     inkscape:cx="169.34153"
     inkscape:cy="117.06458"
     inkscape:window-x="0"
     inkscape:window-y="0"
     inkscape:window-maximized="1"
     inkscape:current-layer="svg14"
     inkscape:document-rotation="0" />
  <path
     id="path75"
     style="fill:#1f5fab;stroke:none;stroke-width:2.42101px;stroke-linecap:butt;stroke-linejoin:miter;stroke-opacity:1;fill-opacity:1"
     d="M 214.84961 0.703125 C 203.51753 0.66930691 191.99692 0.70120814 183.81641 0.89648438 C 167.45538 1.2870368 164.45258 2.3308382 161.86523 3.6933594 C 159.27789 5.0558806 157.10603 6.7351893 155.65234 9.515625 C 154.19865 12.296061 153.46011 16.177396 153.20898 28.246094 C 152.95786 40.314792 153.19375 60.569734 153.32422 73.193359 C 153.45469 85.816985 153.48021 90.807219 154.91797 94.441406 C 156.35573 98.075594 159.20558 100.35604 162.54297 101.61328 C 165.88036 102.87052 169.70699 103.1041 183.12891 103.28906 C 196.55082 103.47403 219.5673 103.61082 233.86719 104.42578 C 248.16707 105.24074 253.74897 106.73561 258.46875 108.90234 C 263.18853 111.06908 267.04422 113.90726 269.68164 116.42383 C 272.31906 118.9404 273.73708 121.13351 274.70312 122.67188 C 275.66918 124.21017 276.18455 125.09412 276.53906 125.68359 C 276.89358 126.27306 277.08689 126.56868 277.18945 125.33984 C 277.29201 124.111 277.30369 121.35628 277.24609 106.75586 C 277.18849 92.155437 277.0607 65.671111 276.99414 48.355469 C 276.92758 31.039826 276.92253 22.874139 276.73633 17.996094 C 276.55012 13.118049 276.183 11.529036 275.67188 10.025391 C 275.16073 8.5217433 274.4894 7.0713837 273.32617 5.8457031 C 272.16294 4.6200225 270.50247 3.6049045 268.94922 2.9257812 C 267.39597 2.2466584 265.95204 1.9035397 264.68359 1.6796875 C 263.41515 1.4558353 262.32147 1.3515801 261.50586 1.2636719 C 260.69025 1.1757636 260.15309 1.10353 259.88477 1.0683594 C 259.61644 1.0331888 259.61593 1.0345716 244.75586 0.90234375 C 237.32582 0.83622981 226.18169 0.73694309 214.84961 0.703125 z M 187.70703 6.6542969 L 194.49805 6.6542969 C 195.27101 6.6542969 195.60352 7.042662 195.60352 7.703125 L 195.60352 12.175781 C 195.60352 12.895716 195.27101 13.224609 194.49805 13.224609 L 190.91211 13.224609 C 187.87294 13.224609 187.26565 13.887731 187.26562 16.373047 L 187.26562 18.470703 L 194.49805 18.470703 C 195.27101 18.470703 195.60352 18.857866 195.60352 19.521484 L 195.60352 23.994141 C 195.60352 24.710947 195.27101 25.042969 194.49805 25.042969 L 187.26562 25.042969 L 187.26562 46.46875 C 187.26562 47.132368 186.88079 47.517578 186.10742 47.517578 L 180.25391 47.517578 C 179.48094 47.517578 179.14844 47.132368 179.14844 46.46875 L 179.14844 25.042969 L 176.38477 25.042969 C 175.66488 25.042969 175.2793 24.710947 175.2793 23.994141 L 175.2793 19.521484 C 175.2793 18.857866 175.66488 18.470703 176.38477 18.470703 L 179.14453 18.470703 L 179.14453 14.882812 C 179.14753 9.4144205 182.01948 6.6542969 187.70703 6.6542969 z M 252.66992 18.457031 L 254.65625 18.457031 C 255.37285 18.457031 255.75781 18.84619 255.75781 19.509766 L 255.75781 23.994141 C 255.75781 24.710947 255.37285 25.042969 254.65625 25.042969 L 252.17188 25.042969 C 247.25769 25.042969 245.15625 27.529021 245.15625 31.726562 L 245.15625 46.46875 C 245.15625 47.132368 244.82569 47.517578 244.05273 47.517578 L 238.19922 47.517578 C 237.42584 47.517578 237.04102 47.132368 237.04102 46.46875 L 237.04102 19.521484 C 237.04102 18.857866 237.42584 18.470703 238.19922 18.470703 L 243.11328 18.470703 C 243.83317 18.470703 244.21875 18.857866 244.21875 19.521484 L 244.21875 23.869141 C 245.1579 20.281982 247.86515 18.457031 252.66992 18.457031 z M 208.45117 18.476562 L 222.80859 18.476562 C 228.60558 18.476562 231.03516 20.907794 231.03516 26.373047 L 231.03516 39.621094 C 231.03516 45.089475 228.60558 47.517578 222.80859 47.517578 L 208.45117 47.517578 C 202.70725 47.517578 200.22266 45.089475 200.22266 39.621094 L 200.22266 26.373047 C 200.22266 20.907794 202.70725 18.476563 208.45117 18.476562 z M 212.36914 25.042969 C 208.89185 25.042969 208.33789 25.595231 208.33789 28.46875 L 208.33789 37.523438 C 208.33789 40.393791 208.89185 40.947266 212.36914 40.947266 L 218.94336 40.947266 C 222.36758 40.947266 222.91797 40.39379 222.91797 37.523438 L 222.91797 28.46875 C 222.91797 25.595231 222.36758 25.042969 218.94336 25.042969 L 212.36914 25.042969 z M 167.53711 55.033203 L 173.44727 55.033203 C 174.16387 55.033203 174.55273 55.422315 174.55273 56.085938 L 174.55273 70.761719 C 174.55273 73.632072 175.15977 74.1875 178.58398 74.1875 L 182.78125 74.1875 C 186.42473 74.1875 187.86133 72.694457 187.86133 69.658203 L 187.86133 56.085938 C 187.86133 55.42232 188.24691 55.033203 188.9668 55.033203 L 194.87891 55.033203 C 195.02042 55.019523 195.16317 55.037978 195.29688 55.085938 C 195.43057 55.133997 195.55238 55.209968 195.65234 55.310547 C 195.75271 55.411126 195.82964 55.534191 195.87695 55.667969 C 195.92465 55.801741 195.94173 55.944593 195.92773 56.085938 L 195.92773 86.566406 C 195.92473 92.360511 192.83162 95.347656 186.8125 95.347656 L 174.77539 95.347656 C 169.36633 95.347656 167.04688 93.249735 167.04688 88.056641 L 167.04688 87.505859 C 167.03088 87.357766 167.04726 87.206687 167.09766 87.066406 C 167.14746 86.925721 167.22784 86.798255 167.33398 86.693359 C 167.4397 86.588459 167.56788 86.509479 167.70898 86.460938 C 167.85008 86.412396 168.00035 86.394859 168.14844 86.412109 L 173.7832 86.412109 C 174.55616 86.412109 174.93945 86.800975 174.93945 87.517578 L 174.93945 87.792969 C 174.93945 88.897898 175.55128 89.339844 176.76562 89.339844 L 183.72266 89.339844 C 187.03458 89.339844 187.86523 88.514308 187.86523 85.697266 L 187.86523 76.984375 C 186.59452 79.469734 184.16411 80.742188 180.35156 80.742188 L 174.71875 80.742188 C 168.97484 80.742188 166.43164 78.312134 166.43164 72.84375 L 166.43164 56.085938 C 166.42464 55.941218 166.44805 55.796712 166.50195 55.662109 C 166.55545 55.52747 166.63924 55.404606 166.74414 55.304688 C 166.84904 55.204808 166.97393 55.128971 167.11133 55.082031 C 167.24831 55.035091 167.39313 55.018583 167.53711 55.033203 z M 263.92578 55.035156 C 265.04333 55.032234 265.19327 55.036282 265.32422 55.044922 C 265.45517 55.053562 265.56833 55.067253 265.68164 55.111328 C 265.79495 55.155403 265.90825 55.22955 266.00391 55.333984 C 266.09956 55.438419 266.17755 55.573071 266.22656 55.697266 C 266.27557 55.82146 266.29648 55.936267 266.30469 56.023438 C 266.3129 56.110602 266.30827 56.172913 266.33594 59.753906 C 266.36361 63.3349 266.42283 70.445356 266.39258 74.216797 C 266.36233 77.988238 266.24249 78.4251 266.07422 79.037109 C 265.90595 79.649119 265.6885 80.436231 265.16602 81.25 C 264.64353 82.063769 263.8167 82.904436 262.76758 83.390625 C 261.71846 83.876814 260.44689 84.009881 257.44336 84.060547 C 254.43982 84.111212 249.70491 84.07969 246.97461 84.072266 C 244.24431 84.064841 243.51988 84.081367 242.77539 84.039062 C 242.0309 83.996758 241.26555 83.896602 240.69727 83.779297 C 240.12898 83.661992 239.75534 83.526779 239.36719 83.355469 C 238.97903 83.184158 238.56505 82.971795 238.21289 82.748047 C 237.86073 82.524298 237.56672 82.28777 237.24805 81.929688 C 236.92937 81.571605 236.59082 81.095692 236.33789 80.585938 C 236.08496 80.076181 235.92707 79.550243 235.81445 78.982422 C 235.70184 78.4146 235.6349 77.811108 235.59766 77.189453 C 235.56041 76.567798 235.5526 75.927572 235.55078 72.507812 C 235.54896 69.088054 235.55432 62.888609 235.55469 59.6875 C 235.55506 56.486391 235.55108 56.284419 235.55859 56.134766 C 235.56611 55.985112 235.58493 55.889951 235.62695 55.779297 C 235.66898 55.668643 235.73236 55.545684 235.8125 55.4375 C 235.89264 55.329316 235.98274 55.243903 236.08203 55.179688 C 236.18132 55.115467 236.2888 55.074932 236.38281 55.056641 C 236.47683 55.038349 236.55755 55.041644 237.73242 55.044922 C 238.90729 55.0482 241.17448 55.051301 242.30859 55.052734 C 243.4427 55.054167 243.44384 55.054104 243.45508 55.056641 C 243.46631 55.059177 243.48775 55.063852 243.51953 55.068359 C 243.55131 55.072867 243.59335 55.076969 243.64648 55.089844 C 243.69962 55.102718 243.764 55.123859 243.83789 55.166016 C 243.91179 55.208172 243.99455 55.272196 244.06641 55.349609 C 244.13826 55.427023 244.19942 55.519177 244.24414 55.609375 C 244.28886 55.699573 244.31741 55.787552 244.33789 55.880859 C 244.35837 55.974167 244.37122 56.071426 244.37695 56.273438 C 244.38269 56.475448 244.38143 56.781737 244.375 59.564453 C 244.36857 62.347169 244.35701 67.607825 244.35938 70.425781 C 244.36174 73.243738 244.37789 73.621159 244.42578 74.011719 C 244.47368 74.402279 244.55238 74.812242 244.66797 75.138672 C 244.78356 75.465102 244.93732 75.712783 245.11914 75.894531 C 245.30096 76.07628 245.51093 76.193348 245.71094 76.291016 C 245.91094 76.388683 246.10031 76.466354 246.41602 76.525391 C 246.73172 76.584428 247.17412 76.623986 248.2832 76.642578 C 249.39229 76.66117 251.16811 76.659633 252.22852 76.642578 C 253.28892 76.625524 253.63476 76.593456 254.01953 76.53125 C 254.40431 76.469044 254.82782 76.37627 255.23242 76.199219 C 255.63703 76.022167 256.02135 75.761339 256.31836 75.462891 C 256.61537 75.164442 256.82588 74.828504 256.99805 74.451172 C 257.17021 74.07384 257.30495 73.653706 257.38477 73.273438 C 257.46458 72.893169 257.48851 72.553523 257.50391 72.222656 C 257.5193 71.89179 257.52681 71.570875 257.53125 69.146484 C 257.53569 66.722094 257.53695 62.193055 257.53516 59.6875 C 257.53336 57.181945 257.52715 56.698901 257.53125 56.402344 C 257.53535 56.105787 257.55095 55.993988 257.57031 55.890625 C 257.58967 55.787262 257.61394 55.689918 257.65625 55.597656 C 257.69856 55.505394 257.75713 55.419665 257.82031 55.349609 C 257.8835 55.279554 257.95155 55.225397 258.0332 55.183594 C 258.11486 55.14179 258.21121 55.112703 258.31445 55.09375 C 258.4177 55.074797 258.52709 55.065676 259.625 55.056641 C 260.72291 55.047605 262.80823 55.038078 263.92578 55.035156 z M 208.39453 55.039062 L 222.75195 55.039062 C 228.54893 55.039062 230.97852 57.472248 230.97852 62.9375 L 230.97852 76.183594 C 230.97852 81.651976 228.54893 84.082031 222.75195 84.082031 L 208.39453 84.082031 C 202.65062 84.082031 200.16406 81.651976 200.16406 76.183594 L 200.16406 62.9375 C 200.16406 57.472248 202.65062 55.039063 208.39453 55.039062 z M 212.3125 61.607422 C 208.83521 61.607422 208.28125 62.15773 208.28125 65.03125 L 208.28125 74.085938 C 208.28125 76.956292 208.83521 77.511719 212.3125 77.511719 L 218.88672 77.511719 C 222.31093 77.511719 222.86133 76.956288 222.86133 74.085938 L 222.86133 65.03125 C 222.86133 62.15773 222.31093 61.607422 218.88672 61.607422 L 212.3125 61.607422 z " />
</svg>
