<?xml version="1.0" encoding="UTF-8" standalone="no"?>
<svg
   xmlns:dc="http://purl.org/dc/elements/1.1/"
   xmlns:cc="http://creativecommons.org/ns#"
   xmlns:rdf="http://www.w3.org/1999/02/22-rdf-syntax-ns#"
   xmlns:svg="http://www.w3.org/2000/svg"
   xmlns="http://www.w3.org/2000/svg"
   xmlns:sodipodi="http://sodipodi.sourceforge.net/DTD/sodipodi-0.dtd"
   xmlns:inkscape="http://www.inkscape.org/namespaces/inkscape"
   width="20"
   height="20"
   viewBox="0 0 20 20"
   fill="none"
   version="1.1"
   id="svg124"
   sodipodi:docname="info.svg"
   inkscape:version="1.0.1 (1.0.1+r73)">
  <metadata
     id="metadata130">
    <rdf:RDF>
      <cc:Work
         rdf:about="">
        <dc:format>image/svg+xml</dc:format>
        <dc:type
           rdf:resource="http://purl.org/dc/dcmitype/StillImage" />
      </cc:Work>
    </rdf:RDF>
  </metadata>
  <defs
     id="defs128" />
  <sodipodi:namedview
     pagecolor="#ffffff"
     bordercolor="#666666"
     borderopacity="1"
     objecttolerance="10"
     gridtolerance="10"
     guidetolerance="10"
     inkscape:pageopacity="0"
     inkscape:pageshadow="2"
     inkscape:window-width="1366"
     inkscape:window-height="704"
     id="namedview126"
     showgrid="false"
     inkscape:zoom="18.80904"
     inkscape:cx="9.1279714"
     inkscape:cy="11.650625"
     inkscape:window-x="0"
     inkscape:window-y="0"
     inkscape:window-maximized="1"
     inkscape:current-layer="svg124"
     inkscape:document-rotation="0" />
  <path
     d="M10.0025 0H9.9975C4.48375 0 0 4.485 0 10C0 12.1875 0.705 14.215 1.90375 15.8612L0.6575 19.5763L4.50125 18.3475C6.0825 19.395 7.96875 20 10.0025 20C15.5162 20 20 15.5138 20 10C20 4.48625 15.5162 0 10.0025 0Z"
     fill="#4CAF50"
     id="path120"
     style="fill:#43302d;fill-opacity:1" />
  <rect
     style="fill:#ffffff;stroke:#ffffff;stroke-width:3.53271;stroke-linecap:square;stroke-linejoin:round;stroke-miterlimit:10;stroke-opacity:0.0117647"
     id="rect831"
     width="1.8273098"
     height="11.436399"
     x="9.0476122"
     y="5.875155"
     ry="0.91365492" />
  <path
     style="fill:#ffffff;stroke:#ffffff;stroke-width:3.53271;stroke-linecap:square;stroke-linejoin:round;stroke-miterlimit:10;stroke-opacity:0.0117647"
     id="path833"
     sodipodi:type="arc"
     sodipodi:cx="9.916625"
     sodipodi:cy="4.1177344"
     sodipodi:rx="0.95833975"
     sodipodi:ry="0.95833975"
     sodipodi:start="0"
     sodipodi:end="6.2738652"
     sodipodi:open="true"
     sodipodi:arc-type="arc"
     d="M 10.874965,4.1177344 A 0.95833975,0.95833975 0 0 1 9.918858,5.0760716 0.95833975,0.95833975 0 0 1 8.9582957,4.1222003 0.95833975,0.95833975 0 0 1 9.9099262,3.1594181 0.95833975,0.95833975 0 0 1 10.874923,4.1088027" />
</svg>
