<?xml version="1.0" encoding="UTF-8" standalone="no"?>
<svg
   xmlns:dc="http://purl.org/dc/elements/1.1/"
   xmlns:cc="http://creativecommons.org/ns#"
   xmlns:rdf="http://www.w3.org/1999/02/22-rdf-syntax-ns#"
   xmlns:svg="http://www.w3.org/2000/svg"
   xmlns="http://www.w3.org/2000/svg"
   xmlns:sodipodi="http://sodipodi.sourceforge.net/DTD/sodipodi-0.dtd"
   xmlns:inkscape="http://www.inkscape.org/namespaces/inkscape"
   width="599"
   height="352"
   viewBox="0 0 599 352"
   fill="none"
   version="1.1"
   id="svg517"
   sodipodi:docname="landing.svg"
   inkscape:version="1.0.1 (1.0.1+r73)">
  <metadata
     id="metadata523">
    <rdf:RDF>
      <cc:Work
         rdf:about="">
        <dc:format>image/svg+xml</dc:format>
        <dc:type
           rdf:resource="http://purl.org/dc/dcmitype/StillImage" />
      </cc:Work>
    </rdf:RDF>
  </metadata>
  <defs
     id="defs521" />
  <sodipodi:namedview
     pagecolor="#ffffff"
     bordercolor="#666666"
     borderopacity="1"
     objecttolerance="10"
     gridtolerance="10"
     guidetolerance="10"
     inkscape:pageopacity="0"
     inkscape:pageshadow="2"
     inkscape:window-width="1366"
     inkscape:window-height="704"
     id="namedview519"
     showgrid="false"
     inkscape:zoom="1.0686955"
     inkscape:cx="413.06888"
     inkscape:cy="175.65568"
     inkscape:window-x="0"
     inkscape:window-y="0"
     inkscape:window-maximized="1"
     inkscape:current-layer="svg517"
     inkscape:document-rotation="0" />
  <path
     d="M459.05 261.842H148.287C142.676 261.842 138.118 257.248 138.118 251.574V60.0307C138.118 54.3567 142.676 49.7621 148.287 49.7621H459.059C464.669 49.7621 469.228 54.3567 469.228 60.0307V251.573C469.219 257.248 464.66 261.842 459.05 261.842Z"
     fill="#04D361"
     stroke="#04D361"
     id="path216"
     style="fill:#f26d21;fill-opacity:1;stroke:#f26d21;stroke-opacity:1" />
  <path
     d="M458.6 253.268H148.733C143.927 253.268 140.025 249.36 140.025 244.548V60.0729C140.025 55.2609 143.927 51.3528 148.733 51.3528H458.6C463.406 51.3528 467.309 55.2609 467.309 60.0729V244.548C467.309 249.369 463.406 253.268 458.6 253.268Z"
     fill="white"
     id="path218" />
  <path
     d="M356.692 68.6108V198.765C356.692 202.691 353.518 205.869 349.597 205.869H153.894C152.135 205.869 150.521 205.23 149.28 204.162C147.767 202.856 146.8 200.929 146.8 198.765V68.6108C146.8 64.6845 149.983 61.5069 153.894 61.5069H349.597C351.357 61.5069 352.98 62.146 354.211 63.2144C355.734 64.5201 356.692 66.4468 356.692 68.6108Z"
     fill="#E6E6F0"
     id="path220"
     style="fill:#e6e6f0;fill-opacity:1" />
  <path
     d="M453.5 117.142H372.491C368.57 117.142 365.396 113.965 365.396 110.038V68.6108C365.396 64.6845 368.57 61.5069 372.491 61.5069H453.5C457.421 61.5069 460.594 64.6845 460.594 68.6108V110.038C460.594 113.965 457.412 117.142 453.5 117.142Z"
     fill="#E6E6F0"
     id="path222"
     style="fill:#e6e6f0;fill-opacity:1" />
  <path
     d="M453.5 182.636H372.491C368.57 182.636 365.396 179.458 365.396 175.532V134.104C365.396 130.178 368.57 127 372.491 127H453.5C457.421 127 460.594 130.178 460.594 134.104V175.532C460.594 179.458 457.412 182.636 453.5 182.636Z"
     fill="#E6E6F0"
     id="path224"
     style="fill:#e6e6f0;fill-opacity:1" />
  <path
     d="M453.5 244.691H372.491C368.57 244.691 365.396 241.513 365.396 237.587V200.104C365.396 196.178 368.57 193 372.491 193H453.5C457.421 193 460.594 196.178 460.594 200.104V237.587C460.594 241.513 457.412 244.691 453.5 244.691Z"
     fill="#E6E6F0"
     id="path226" />
  <path
     d="M253.825 219.84H149.381C147.958 219.84 146.809 218.689 146.809 217.265C146.809 215.84 147.958 214.69 149.381 214.69H253.825C255.247 214.69 256.396 215.84 256.396 217.265C256.396 218.68 255.247 219.84 253.825 219.84Z"
     fill="#E6E6F0"
     id="path228"
     style="fill:#e6e6f0;fill-opacity:1" />
  <path
     d="M259.853 244H149.485C147.981 244 146.767 242.884 146.767 241.502V231.499C146.767 230.116 147.981 229 149.485 229H259.853C261.357 229 262.571 230.116 262.571 231.499V241.502C262.571 242.884 261.357 244 259.853 244Z"
     fill="#E6E6F0"
     id="path230" />
  <path
     d="M331.15 219.84H354.12C355.543 219.84 356.692 218.689 356.692 217.265C356.692 215.84 355.543 214.69 354.12 214.69H331.15C329.728 214.69 328.579 215.84 328.579 217.265C328.579 218.68 329.728 219.84 331.15 219.84Z"
     fill="#E6E6F0"
     id="path232"
     style="fill:#e6e6f0;fill-opacity:1" />
  <path
     d="M292.187 219.84H315.156C316.579 219.84 317.728 218.689 317.728 217.265C317.728 215.84 316.579 214.69 315.156 214.69H292.187C290.764 214.69 289.615 215.84 289.615 217.265C289.606 218.68 290.764 219.84 292.187 219.84Z"
     fill="#E6E6F0"
     id="path234"
     style="fill:#e6e6f0;fill-opacity:1" />
  <path
     d="M308.564 244.11H354.12C355.543 244.11 356.692 242.959 356.692 241.535V231.226C356.692 229.801 355.543 228.651 354.12 228.651H308.564C307.141 228.651 305.992 229.801 305.992 231.226V241.535C305.992 242.959 307.141 244.11 308.564 244.11Z"
     fill="#E6E6F0"
     id="path236" />
  <path
     d="M354.211 63.2144L149.28 204.161C147.767 202.856 146.8 200.929 146.8 198.765V68.6108C146.8 64.6845 149.983 61.5069 153.894 61.5069H349.597C351.357 61.5069 352.98 62.146 354.211 63.2144Z"
     fill="#F2F2FA"
     id="path256" />
  <mask
     id="mask0"
     mask-type="alpha"
     maskUnits="userSpaceOnUse"
     x="147"
     y="32"
     width="210"
     height="175">
    <path
       d="M356.947 40.8188V197.587C356.947 202.316 353.78 206.144 349.866 206.144H154.512C152.755 206.144 151.144 205.374 149.906 204.087C148.395 202.514 147.43 200.194 147.43 197.587V40.8188C147.43 36.0896 150.607 32.2622 154.512 32.2622H349.866C351.623 32.2622 353.243 33.0321 354.472 34.3189C355.992 35.8916 356.947 38.2123 356.947 40.8188Z"
       fill="#A3D1DE"
       id="path258" />
  </mask>
  <path
     d="m 340.57188,273.893 c 5.38745,0 5.38745,-6.848 10.77491,-6.848 5.38652,0 5.38652,-9.131 10.77398,-9.131 5.38746,0 5.38746,3.497 10.77398,3.497 5.38746,0 5.38746,-8.446 10.77492,-8.446 5.38652,0 5.38652,13.249 10.77397,13.249"
     stroke="#ffffff"
     stroke-width="1.93677"
     stroke-miterlimit="10"
     stroke-linecap="round"
     stroke-linejoin="round"
     id="path473" />
  <path
     d="m 342.14545,273.893 c 0,-0.922 -0.70145,-1.671 -1.56513,-1.671 -0.86368,0 -1.56419,0.749 -1.56419,1.671 0,0.922 0.70051,1.67 1.56419,1.67 0.86368,0 1.56513,-0.748 1.56513,-1.67 z"
     fill="#ffffff"
     id="path475"
     style="stroke-width:0.968383" />
  <path
     d="m 396.01721,266.223 c 0,-0.922 -0.70144,-1.671 -1.56513,-1.671 -0.86368,0 -1.56419,0.749 -1.56419,1.671 0,0.922 0.70051,1.67 1.56419,1.67 0.86369,0 1.56513,-0.748 1.56513,-1.67 z"
     fill="#ffffff"
     id="path477"
     style="stroke-width:0.968383" />
  <path
     d="m 351.56848,283.0973 h 57.74539 c 3.86547,0 7.00323,-3.3511 7.00323,-7.4783 v -18.8192 c 0,-4.1272 -3.13776,-7.4783 -7.00323,-7.4783 h -57.74539 c -3.86509,0 -7.00332,3.3511 -7.00332,7.4783 v 18.8192 c 0,4.1363 3.13823,7.4783 7.00332,7.4783 z"
     fill="#6842C2"
     id="path479"
     style="fill:#2d8dff;fill-opacity:1;stroke-width:0.968383" />
  <path
     d="m 407.7148,281.1615 v 8.1997 l -8.2347,-8.7841 z"
     fill="#6842C2"
     id="path481"
     style="fill:#2d8dff;fill-opacity:1;stroke-width:0.968383" />
  <path
     d="m 351.20069,257.6125 h 16.00764"
     stroke="#ffffff"
     stroke-width="2.14642"
     stroke-miterlimit="10"
     stroke-linecap="round"
     stroke-linejoin="round"
     id="path483" />
  <path
     d="m 372.91191,257.6125 h 36.76957"
     stroke="#ffffff"
     stroke-width="2.14642"
     stroke-miterlimit="10"
     stroke-linecap="round"
     stroke-linejoin="round"
     id="path485" />
  <path
     d="m 351.20069,266.214 h 29.84333"
     stroke="#ffffff"
     stroke-width="2.14642"
     stroke-miterlimit="10"
     stroke-linecap="round"
     stroke-linejoin="round"
     id="path487" />
  <path
     d="m 385.61037,266.214 h 8.83327"
     stroke="#ffffff"
     stroke-width="2.14642"
     stroke-miterlimit="10"
     stroke-linecap="round"
     stroke-linejoin="round"
     id="path489" />
  <path
     d="m 399.18086,266.214 h 10.50062"
     stroke="#ffffff"
     stroke-width="2.14642"
     stroke-miterlimit="10"
     stroke-linecap="round"
     stroke-linejoin="round"
     id="path491" />
  <path
     d="m 351.20069,274.8063 h 6.75537"
     stroke="#ffffff"
     stroke-width="2.14642"
     stroke-miterlimit="10"
     stroke-linecap="round"
     stroke-linejoin="round"
     id="path493" />
  <path
     d="m 362.0948,274.8063 h 24.37053"
     stroke="#ffffff"
     stroke-width="2.14642"
     stroke-miterlimit="10"
     stroke-linecap="round"
     stroke-linejoin="round"
     id="path495" />
  <path
     d="m 140.61092,320.196 1.94199,23.658 h -10.076 l -5.234,-23.658 z"
     fill="#fec9cf"
     id="path331-6"
     style="fill:#bc8567;fill-opacity:1;stroke-width:1" />
  <path
     d="m 131.38291,338.905 c 0,0 -4.377,7.077 -1.095,8.337 3.283,1.26 24.89402,1.37 30.22801,0.575 5.335,-0.803 -11.899,-8.117 -15.83901,-9.268 -3.948,-1.15 -5.215,4.849 -13.294,0.356 z"
     fill="#6842c2"
     id="path333-5"
     style="fill:#43302d;fill-opacity:1;stroke-width:1" />
  <path
     d="m 87.6319,320.196 -1.933,23.658 h 10.07601 l 5.225,-23.658 z"
     fill="#fec9cf"
     id="path335-6"
     style="fill:#bc8567;fill-opacity:1;stroke-width:1" />
  <path
     d="m 96.86891,338.905 c 0,0 4.377,7.077 1.094,8.337 -3.283,1.26 -24.89401,1.37 -30.22802,0.575 -5.33399,-0.803 11.90001,-8.117 15.83901,-9.268 3.939,-1.15 5.21601,4.849 13.29501,0.356 z"
     fill="#6842c2"
     id="path337-9"
     style="fill:#43302d;fill-opacity:1;stroke-width:1" />
  <path
     d="m 142.63491,190.836 4.56801,141.851 h -21.27301 l -4.587,-94.479 -18.228,97.191 -23.17001,-3.862 c 0,0 20.91801,-106.021 24.47401,-140.692 h 38.216 z"
     fill="#d8d8e3"
     id="path339-3"
     style="stroke-width:1" />
  <path
     d="m 122.3209,244.715 0.723,-15.3 -1.19799,8.8 z"
     fill="#194248"
     stroke="#c9c9d4"
     id="path341-7"
     style="stroke-width:1" />
  <path
     d="m 111.2579,190.836 -24.62,141.495"
     stroke="#c9c9d4"
     stroke-miterlimit="10"
     stroke-linecap="round"
     stroke-linejoin="round"
     id="path343-4"
     style="stroke-width:1" />
  <path
     d="m 116.3819,86.276302 c -4.54099,0.009 -9.364,2.3923 -10.896,6.6748 -1.18599,3.2963 -0.29199,7.186098 -1.95199,10.272898 -1.221,2.282 -3.665,3.752 -4.76901,6.09 -2.27899,4.858 2.16201,10.628 0.74801,15.797 -1.30401,4.784 -7.222,7.524 -7.714,12.464 -0.319,3.15 1.896,6.172 4.751,7.542 2.84499,1.379 6.182,1.369 9.30099,0.849 7.65,-1.287 14.85401,-5.488 22.60401,-5.086 3.192,0.164 6.52901,1.096 9.484,-0.137 2.10601,-0.877 3.62901,-2.73 4.96901,-4.575 1.54099,-2.118 3.019,-4.529 2.873,-7.14 -0.21,-3.835 -3.684,-6.52 -5.76301,-9.743 -2.125,-3.296 -3.018,-7.414 -2.42599,-11.295 2.81799,-18.444798 -7.54101,-17.878698 -8.86301,-17.906098 -1.213,-0.0274 -5.243,-2.5019 -6.83901,-2.9676 -1.805,-0.5204 -3.647,-0.84 -5.508,-0.84 z"
     fill="#d38d00"
     id="path345-5"
     style="fill:#000000;stroke-width:1" />
  <path
     d="m 165.04792,163.662 c 4.386,-3.498 22.22202,-15.313 22.39601,-16.966 0.328,-3.104 1.41301,-5.561 8.06,-7.679 0,0 0.529,0.986 -0.39199,2.073 -0.994,1.178 -1.79601,1.588 -1.79601,1.588 0,0 1.76901,0.658 4.37701,-1.424 2.608,-2.082 3.693,-3.881 4.805,-3.452 0,0 1.295,-1.196 1.915,-1.013 0,0 0.456,0.128 0.374,0.621 1.031,-0.174 0.848,2.794 -0.948,5.232 -2.59,3.497 -7.15801,6.163 -9.839,7.177 -2.006,0.758 -15.16402,20.243 -23.98201,22.353 -2.53501,0.584 -7.01201,-6.885 -4.97001,-8.51 z"
     fill="#fcddc6"
     id="path347-2"
     style="fill:#bc8567;fill-opacity:1;stroke-width:1" />
  <path
     d="m 151.25192,146.377 c 0,0 19.71401,13.77 21.62001,17.194 1.906,3.424 0.48299,12.564 -8.29801,6.693 -8.781,-5.872 -22.641,-16.527 -22.641,-16.527 z"
     fill="#fcddc6"
     id="path349-5"
     style="stroke-width:1" />
  <path
     d="m 141.12091,133.84 c 0,0 5.417,1.37 9.02801,5.67 3.027,3.607 7.905,9.414 7.905,9.414 l -14.954,11.633 c -0.009,-0.009 -3.65701,-21.156 -1.97901,-26.717 z"
     fill="#47248f"
     id="path351-4"
     style="fill:#43302d;fill-opacity:1;stroke-width:1" />
  <path
     d="m 104.41891,190.836 h 38.225 c 0,0 -0.155,-6.565 1.97001,-16.765 2.133,-10.19 1.067,-15.522 -1.058,-20.846 -2.134,-5.323 1.66899,-17.632 -2.43501,-19.385 -1.668,-0.712 -4.568,-1.863 -7.41299,-2.968 -0.72001,-0.274 -1.43201,-0.557 -2.116,-0.821 -3.30102,-1.279 -6.08201,-2.338 -6.08201,-2.338 h -6.88401 c 0,0 -4.742,1.571 -9.61099,3.515 -0.63901,0.256 -1.28601,0.521 -1.92401,0.786 0,0.009 0,0.009 0,0.009 -2.45299,1.032 -4.79699,2.118 -6.39199,3.114 -5.171,3.195 3.72,55.699 3.72,55.699 z"
     fill="#6842c2"
     id="path353-7"
     style="fill:#2d8dff;fill-opacity:1;stroke-width:1" />
  <path
     d="m 127.82691,110.775 -0.73,14.171 -0.21,4.045 c -0.091,1.717 -0.839,3.251 -2.006,4.356 -1.158,1.105 -2.726,1.771 -4.441,1.771 -3.629,0 -6.547,-2.995 -6.45601,-6.62 l 0.18301,-7.213 0.30999,-11.989 z"
     fill="#ffdfc8"
     id="path355-4"
     style="fill:#bc8567;fill-opacity:1;stroke-width:1" />
  <path
     d="m 127.82691,110.775 -0.73,13.35 c -6.264,0.255 -10.84201,-2.302 -12.93901,-5.698 l 0.31,-9.131 z"
     fill="#da9f74"
     id="path357-4"
     style="fill:#765441;fill-opacity:1;stroke-width:1" />
  <path
     d="m 132.80491,99.7994 c 0,0 0.465,4.6206 -0.182,9.7246 -0.748,5.908 -1.404,12.674 -9.18301,13.313 -9.264,0.758 -12.355,-9.907 -12.355,-9.907 0,0 -4.304,-1.005 -4.833,-3.945 -0.529,-2.949 2.681,-3.835 3.802,-2.903 0,0 1.277,-12.436998 12.748,-12.436998 10.14001,0 10.00301,6.154398 10.00301,6.154398 z"
     fill="#ffdfc8"
     id="path359-3"
     style="fill:#bc8567;fill-opacity:1;stroke-width:1" />
  <path
     d="m 107.0909,132.014 c 0,0.009 0,0.009 0,0 7.842,9.569 17.088,9.122 17.088,9.122 7.29501,-1.598 9.52902,-10.264 9.52902,-10.264 -0.72101,-0.274 -1.43201,-0.557 -2.116,-0.821 -3.30102,-1.279 -6.08201,-2.338 -6.08201,-2.338 h -6.88401 c 0,0 -4.742,1.571 -9.61099,3.515 -0.63901,0.256 -1.28601,0.521 -1.92401,0.786 z"
     fill="#04d361"
     id="path361-0"
     style="fill:#f26d21;fill-opacity:1;stroke-width:1" />
  <path
     d="m 109.01491,131.228 c 7.99699,8.702 14.92699,7.789 14.92699,7.789 7.45001,-2.858 7.65101,-8.966 7.65101,-8.966 -3.301,-1.279 -6.083,-2.338 -6.083,-2.338 h -6.88401 c 0,0 -4.742,1.571 -9.61099,3.515 z"
     fill="#fcddc6"
     id="path363-7"
     style="fill:#bc8567;fill-opacity:1;stroke-width:1" />
  <path
     d="m 128.81091,90.960502 c 0,0 -1.067,8.994098 4.705,11.961498 0,0 2.891,-10.893198 -4.705,-11.961498 z"
     fill="#d38d00"
     id="path365-8"
     style="fill:#000000;stroke-width:1" />
  <path
     d="m 130.56191,91.818802 c 0,0 -2.052,7.834398 -7.14,8.290998 -5.088,0.4565 -4.18501,4.5842 -8.69001,5.0582 -2.68099,0.283 -3.87499,3.078 -3.87499,3.078 0,0 -0.39201,-2.776 -2.81801,-3.762 -2.444,-0.987 5.736,-21.723198 22.52301,-12.665198 z"
     fill="#d38d00"
     id="path367-6"
     style="fill:#000000;stroke-width:1" />
  <path
     d="m 121.9269,110.674 c 0,0.493 -0.39199,0.886 -0.885,0.886 -0.492,0 -0.88399,-0.393 -0.88399,-0.886 0,-0.493 0.39199,-0.885 0.88399,-0.885 0.484,0 0.885,0.401 0.885,0.885 z"
     fill="#60423d"
     id="path369-8"
     style="stroke-width:1" />
  <path
     d="m 129.93191,110.674 c 0,0.493 -0.39199,0.885 -0.884,0.885 -0.493,0 -0.885,-0.392 -0.885,-0.885 0,-0.493 0.401,-0.886 0.885,-0.886 0.49201,0 0.884,0.402 0.884,0.886 z"
     fill="#60423d"
     id="path371-8"
     style="stroke-width:1" />
  <path
     d="m 117.8149,107.588 c 0,0 1.313,-2.164 4.112,-1.388"
     stroke="#561e15"
     stroke-miterlimit="10"
     stroke-linecap="round"
     stroke-linejoin="round"
     id="path373-4"
     style="stroke-width:1" />
  <path
     d="m 126.74191,106.173 c 0,0 2.024,-1.844 4.002,0.173"
     stroke="#561e15"
     stroke-miterlimit="10"
     stroke-linecap="round"
     stroke-linejoin="round"
     id="path375-3"
     style="stroke-width:1" />
  <path
     d="m 124.97291,108.373 c 0,0 0.957,2.447 1.769,3.972 0.811,1.525 -1.59601,2.201 -1.59601,2.201"
     stroke="#da9f74"
     stroke-width="0.75"
     stroke-miterlimit="10"
     stroke-linecap="round"
     stroke-linejoin="round"
     id="path377-1"
     style="stroke:#765441;stroke-opacity:1" />
  <path
     d="m 119.66591,116.281 c 0,0 1.55899,2.273 4.27599,1.625"
     stroke="#da9f74"
     stroke-width="0.75"
     stroke-miterlimit="10"
     stroke-linecap="round"
     stroke-linejoin="round"
     id="path379-4"
     style="stroke:#765441;stroke-opacity:1" />
  <path
     d="m 110.0819,110.053 c 0,0 -0.028,-2.757 -2.079,-1.999"
     stroke="#da9f74"
     stroke-width="0.75"
     stroke-miterlimit="10"
     stroke-linecap="round"
     stroke-linejoin="round"
     id="path381-9"
     style="stroke:#765441;stroke-opacity:1" />
  <path
     d="m 141.85991,181.723 h 35.01502 c 0.69299,0 1.258,-0.566 1.258,-1.26 0,-0.694 -0.56501,-1.26 -1.258,-1.26 h -35.01502 c -0.69299,0 -1.25899,0.566 -1.25899,1.26 0.009,0.703 0.566,1.26 1.25899,1.26 z"
     fill="#04d361"
     id="path383-2"
     style="fill:#f26d21;fill-opacity:1;stroke-width:1" />
  <path
     d="m 180.81293,151.936 v 0 -0.002 c 0.212,-0.843 -0.43299,-1.669 -1.30201,-1.669 h -31.541 c -0.62,0 -1.15601,0.42 -1.30201,1.015 v 0.002 l -6.795,27.43 h 34.30402 z"
     fill="#04d361"
     stroke="#04d361"
     id="path385-0"
     style="fill:#f26d21;fill-opacity:1;stroke:#f26d21;stroke-width:1;stroke-opacity:1" />
  <path
     d="m 141.65892,179.212 h 35.335 l 6.72901,-27.156 c 0.292,-1.159 -0.593,-2.291 -1.787,-2.291 h -31.54102 c -0.848,0 -1.587,0.575 -1.78699,1.397 z"
     fill="#ffffff"
     id="path387-6"
     style="stroke-width:1" />
  <path
     d="m 114.7599,181.723 h 26.49801 c 0.64801,0 1.176,-0.529 1.176,-1.178 v -0.155 c 0,-0.648 -0.52799,-1.178 -1.176,-1.178 H 114.7599 c -0.648,0 -1.177,0.53 -1.177,1.178 v 0.155 c -0.009,0.658 0.52001,1.178 1.177,1.178 z"
     fill="#04d361"
     id="path389-8"
     style="fill:#f26d21;fill-opacity:1;stroke-width:1" />
  <path
     d="m 161.86792,162.946 v 0.001 c -0.592,1.535 -0.0389,2.944 0.909,3.317 0.94301,0.362 2.297,-0.311 2.89,-1.85 0.593,-1.539 0.036,-2.953 -0.90799,-3.317 -0.94401,-0.364 -2.299,0.303 -2.89101,1.849 z"
     fill="#04d361"
     stroke="#04d361"
     id="path391-9"
     style="fill:#f26d21;fill-opacity:1;stroke:#f26d21;stroke-width:1;stroke-opacity:1" />
  <path
     d="m 102.48592,179.212 2.29799,-29.822 -4.414,12.555 z"
     fill="#47248f"
     id="path393-2"
     style="fill:#43302d;fill-opacity:1;stroke-width:1" />
  <path
     d="m 102.18491,152.422 c 0,0 -5.453,29.347 -6.802,34.15 -0.876,3.104 -7.24101,5.223 -9.238,1.114 -0.43701,-0.904 -0.33701,-2.411 -0.29101,-3.945 0.31001,-9.487 6.93901,-33.63 6.93901,-33.63 z"
     fill="#fcddc6"
     id="path395-6"
     style="fill:#bc8567;fill-opacity:1;stroke-width:1" />
  <path
     d="m 100.68991,135.137 c 0,0 -3.256,1.671 -5.991,6.391 -2.73601,4.721 -6.51101,13.049 -6.27401,15.067 1.42301,3.88 12.65701,7.898 12.65701,7.898 0,0 7.50399,-24.7 -0.392,-29.356 z"
     fill="#6842c2"
     id="path397-6"
     style="fill:#2d8dff;fill-opacity:1;stroke-width:1" />
  <path
     d="m 94.3889,180.901 c 0,0 17.31601,-0.383 20.59901,-2.337 4.44899,-2.657 5.47999,-1.507 8.06,-2.146 4.13999,-1.032 3.684,-0.192 3.684,-0.192 0,0 -0.191,2.402 -3.392,2.703 -1.614,0.155 -4.03,0.84 -3.52,1.233 0,0 12.839,1.342 15.42,1.57 2.58001,0.229 1.322,2.219 -0.648,2.676 0,0 -1.176,1.488 -3.08201,1.032 0,0 0.42,0.84 -4.52199,0.84 -4.943,0 -9.903,-2.63 -12.41101,-1.489 -2.507,1.142 -16.049,6.392 -24.638,5.178 -4.104,-0.585 -4.131,-2.557 -4.131,-4.639 0,-3.607 2.66301,-4.063 8.581,-4.429 z"
     fill="#fcddc6"
     id="path399-4"
     style="fill:#bc8567;fill-opacity:1;stroke-width:1" />
  <path
     d="m 168.71052,273.68326 c 0,-0.922 0.74799,-1.671 1.669,-1.671 0.92099,0 1.66799,0.749 1.66799,1.671 0,0.922 -0.747,1.67 -1.66799,1.67 -0.92101,0 -1.669,-0.748 -1.669,-1.67 z"
     fill="#ffffff"
     id="path477-9"
     style="stroke-width:1" />
  <path
     d="m 447.73894,318.757 5.71702,23.658 h 10.07603 l -2.42601,-23.658 z"
     fill="#bc8567"
     id="path401-2"
     style="fill:#fcddc6;fill-opacity:1;stroke-width:1" />
  <path
     d="m 464.62599,337.466 c 0,0 4.37702,7.077 1.094,8.337 -3.28301,1.26 -24.89408,1.37 -30.2281,0.575 -5.33402,-0.803 11.90004,-8.117 15.83905,-9.268 3.93902,-1.15 5.21603,4.849 13.29505,0.356 z"
     fill="#6842c2"
     id="path403-7"
     style="fill:#43302d;fill-opacity:1;stroke-width:1" />
  <path
     d="m 479.47105,318.757 3.45601,23.658 h 10.07643 l -0.1641,-23.658 z"
     fill="#bc8567"
     id="path405-2"
     style="fill:#fcddc6;fill-opacity:1;stroke-width:1" />
  <path
     d="m 494.0971,337.466 c 0,0 4.37691,7.077 1.0942,8.337 -3.28261,1.26 -24.89329,1.37 -30.2283,0.575 -5.33402,-0.803 11.90004,-8.117 15.83905,-9.268 3.93902,-1.15 5.21602,4.849 13.29505,0.356 z"
     fill="#6842c2"
     id="path407-2"
     style="fill:#43302d;fill-opacity:1;stroke-width:1" />
  <path
     d="m 495.9051,204.277 -0.7477,126.246 h -15.99435 l -11.29804,-92.754 -12.87505,37.638 9.63803,55.125 h -17.39806 c 0,0 -15.29205,-47.637 -14.67204,-56.987 0.62,-9.36 18.27405,-73.113 18.27405,-73.113 z"
     fill="#d8d8e3"
     id="path409-6"
     style="stroke-width:1" />
  <path
     d="m 465.5,244.691 2.36501,-6.922 -1.10201,-11.201 z"
     fill="#c9c9d4"
     stroke="#c9c9d4"
     id="path411-1"
     style="stroke-width:1" />
  <path
     d="m 487.37607,202.811 0.922,127.78"
     stroke="#c9c9d4"
     stroke-miterlimit="10"
     id="path413-0"
     style="stroke-width:1" />
  <path
     d="m 438.4009,146.518 c 0,0 -10.33103,19.567 -10.55904,25.576 -0.22799,6.008 6.38303,4.666 9.80204,-0.749 3.41901,-5.424 8.89103,-20.801 8.89103,-20.801 z"
     fill="#bc8567"
     id="path415-6"
     style="fill:#fcddc6;fill-opacity:1;stroke-width:1" />
  <path
     d="m 436.4679,148.152 c 0,0 2.963,5.278 10.06703,8.501 1.46801,0.667 2.70801,-1.096 3.62901,-3.187 1.06701,-2.438 1.68701,-5.314 1.68701,-5.314 0,0 8.14303,-25.229 0.966,-24.325 0,0 -6.10902,0.429 -10.59503,9.286 -1.177,2.31 -3.01002,6.967 -4.54202,11.387 -0.437,1.26 -0.848,2.492 -1.212,3.652 z"
     fill="#47248f"
     id="path417-1"
     style="fill:#43302d;fill-opacity:1;stroke-width:1" />
  <path
     d="m 436.4679,148.152 c 0,0 2.963,5.278 10.06703,8.501 1.46801,0.667 2.70801,-1.096 3.62901,-3.187 -2.781,-1.251 -8.04303,-4.063 -12.48404,-8.966 -0.437,1.26 -0.848,2.492 -1.212,3.652 z"
     fill="#04d361"
     id="path419-5"
     style="fill:#f26d21;fill-opacity:1;stroke-width:1" />
  <path
     d="m 450.96594,201.87 c 4.51402,5.132 34.23112,4.374 45.44736,2.465 1.96961,-0.337 3.91192,-1.095 0.80251,-7.962 -1.16721,-2.566 -0.66571,-9.167 -0.46511,-18.244 0.39211,-17.942 5.70823,-47.709 -0.848,-51.125 -3.93011,-2.054 -12.27364,-4.757 -18.33766,-6.601 -0.365,-0.101 -0.72001,-0.21 -1.067,-0.32 -3.53801,-1.059 -6.06403,-1.762 -6.06403,-1.762 0,0 -2.927,0.429 -8.88102,2.191 -0.31901,0.092 -0.66601,0.201 -1.01201,0.302 -1.55001,0.474 -3.27401,1.022 -5.19802,1.68 -3.72901,1.269 -6.46502,2.045 -7.13102,3.287 -1.77801,3.26 -1.094,9.04 -1.203,17.367 -0.146,10.455 -0.037,54.193 3.957,58.722 z"
     fill="#6842c2"
     id="path421-9"
     style="fill:#2d8dff;fill-opacity:1;stroke-width:1" />
  <path
     d="m 498.14581,157.813 -6.41032,-15.651 4.66871,40.259 z"
     fill="#47248f"
     id="path423-4"
     style="fill:#43302d;fill-opacity:1;stroke-width:1" />
  <path
     d="m 460.54098,120.823 c 0.137,2.21 1.13,4.154 2.62601,5.579 1.532,1.461 3.60201,2.347 5.85402,2.347 4.66001,0 8.43503,-3.735 8.52603,-8.355 -0.365,-0.101 -0.72,-0.21 -1.06701,-0.32 -3.53801,-1.059 -6.06401,-1.762 -6.06401,-1.762 0,0 -2.92702,0.429 -8.88104,2.191 -0.30999,0.119 -0.648,0.219 -0.994,0.32 z"
     fill="#04d361"
     id="path425-9"
     style="fill:#f26d21;fill-opacity:1;stroke-width:1" />
  <path
     d="m 456.65496,86.374998 c 0,0 3.37602,-3.2313 8.48504,-4 7.47402,-1.1245 17.31306,1.3103 19.27307,12.734699 1.54999,6.583303 -6.46503,17.403303 -9.49204,16.773303 0,0 -27.25109,-17.273303 -18.26607,-25.508002 z"
     fill="#43302d"
     id="path427-0"
     style="stroke-width:1" />
  <path
     d="m 461.56198,102.205 0.729,14.171 0.21001,4.045 c 0.082,1.717 0.839,3.251 2.006,4.356 1.15801,1.104 2.72701,1.771 4.44102,1.771 3.62901,0 6.54702,-2.995 6.45602,-6.62 l -0.182,-7.214 -0.31,-11.989 z"
     fill="#bc8567"
     id="path429-9"
     style="fill:#fcddc6;fill-opacity:1;stroke-width:1" />
  <path
     d="m 461.56198,105.026 0.729,13.35 c 6.26502,0.255 10.84204,-2.301 12.94005,-5.698 l -0.31,-9.131 z"
     fill="#765441"
     id="path431-1"
     style="stroke-width:1" />
  <path
     d="m 456.59196,94.050497 c 0,0 -0.465,4.6203 0.183,9.724503 0.74701,5.908 0.48301,12.847 9.18204,13.313 9.28303,0.493 12.35604,-9.907 12.35604,-9.907 0,0 4.93301,-0.922 5.27002,-4.255 0.338,-3.332903 -3.10901,-3.524703 -4.23102,-2.593 0,0 -1.276,-12.436802 -12.74704,-12.436802 -10.14904,0.009 -10.01304,6.154299 -10.01304,6.154299 z"
     fill="#bc8567"
     id="path433-7"
     style="fill:#fcddc6;fill-opacity:1;stroke-width:1" />
  <path
     d="m 467.207,102.981 c 0,0.511 0.41,0.922 0.92001,0.922 0.511,0 0.921,-0.411 0.921,-0.922 0,-0.512 -0.41,-0.923 -0.921,-0.923 -0.501,0 -0.92001,0.411 -0.92001,0.923 z"
     fill="#60423d"
     id="path435-7"
     style="fill:#da9f74;fill-opacity:1;stroke-width:1" />
  <path
     d="m 458.33397,102.506 c 0,0.511 0.411,0.922 0.921,0.922 0.511,0 0.92101,-0.411 0.92101,-0.922 0,-0.512 -0.41001,-0.922 -0.92101,-0.922 -0.51,0 -0.921,0.41 -0.921,0.922 z"
     fill="#60423d"
     id="path437-1"
     style="fill:#da9f74;fill-opacity:1;stroke-width:1" />
  <path
     d="m 471.75702,100.342 c 0,0 -1.35901,-2.246403 -4.26702,-1.433803"
     stroke="#43302d"
     stroke-miterlimit="10"
     stroke-linecap="round"
     stroke-linejoin="round"
     id="path439-1"
     style="stroke:#561e15;stroke-width:1;stroke-opacity:1" />
  <path
     d="m 462.49199,98.871597 c 0,0 -2.09701,-1.9172 -4.15702,0.1825"
     stroke="#43302d"
     stroke-miterlimit="10"
     stroke-linecap="round"
     stroke-linejoin="round"
     id="path441-5"
     style="stroke:#561e15;stroke-width:1;stroke-opacity:1" />
  <path
     d="m 464.32499,101.154 c 0,0 -0.994,2.539 -1.84201,4.128 -0.848,1.579 1.66001,2.282 1.66001,2.282"
     stroke="#765441"
     stroke-width="0.750002"
     stroke-miterlimit="10"
     stroke-linecap="round"
     stroke-linejoin="round"
     id="path443-9"
     style="stroke:#da9f74;stroke-opacity:1" />
  <path
     d="m 467.66201,110.404 c 0,0 -2.05102,1.99 -4.68602,0.776"
     stroke="#765441"
     stroke-width="0.750002"
     stroke-miterlimit="10"
     stroke-linecap="round"
     stroke-linejoin="round"
     id="path445-7"
     style="stroke:#da9f74;stroke-opacity:1" />
  <path
     d="m 479.49904,104.002 c 0,0 0.027,-2.857 2.16001,-2.081"
     stroke="#765441"
     stroke-width="0.750002"
     stroke-miterlimit="10"
     stroke-linecap="round"
     stroke-linejoin="round"
     id="path447-7"
     style="stroke:#da9f74;stroke-opacity:1" />
  <path
     d="m 476.68104,90.708498 c 0,0 -5.21603,5.323399 -2.36201,7.359699 3.17301,2.264803 3.67501,5.478803 3.67501,5.478803 0,0 -0.064,-1.132 1.349,-3.205 1.41401,-2.073003 4.49602,-9.432602 -2.662,-9.633502 z"
     fill="#43302d"
     id="path449-6"
     style="stroke-width:1" />
  <path
     d="m 505.24004,147.568 c 0,0 10.33143,19.568 10.55933,25.576 0.228,6.008 -6.38302,4.666 -9.80243,-0.749 -3.41952,-5.424 -8.89074,-20.801 -8.89074,-20.801 z"
     fill="#bc8567"
     id="path451-7"
     style="fill:#fcddc6;fill-opacity:1;stroke-width:1" />
  <path
     d="m 431.57088,165.473 c 0,0 15.40106,-11.413 16.27706,-12.062 1.486,-1.114 3.65601,-2.73 4.44001,-3.278 1.24101,-0.867 8.49003,-2.127 9.50203,-1.963 1.00301,0.164 3.78401,0.639 4.59602,0.94 0.811,0.302 -0.21,1.343 -1.012,1.836 -0.803,0.493 -4.35902,2.337 -7.37703,2.894 -1.678,0.311 -3.11901,1.16 -4.29501,2.009 -0.93901,0.676 -17.18906,17.267 -17.80007,17.669 z"
     fill="#bc8567"
     id="path453-3"
     style="fill:#fcddc6;fill-opacity:1;stroke-width:1" />
  <path
     d="m 450.63794,151.467 c 0,0 5.79902,-5.433 6.66603,-5.351 0.857,0.082 0.246,1.306 -2.03401,3.159 -0.775,0.63 -1.605,1.625 -2.298,1.954 -1.35801,0.639 -2.33402,0.238 -2.33402,0.238 z"
     fill="#bc8567"
     id="path455-6"
     style="fill:#fcddc6;fill-opacity:1;stroke-width:1" />
  <path
     d="m 455.31096,171.04 h -0.002 c -0.513,-0.058 -0.937,-0.429 -1.06901,-0.935 v 0 l -5.05101,-19.449 c -0.222,-0.855 0.49,-1.674 1.371,-1.569 8.6e-4,0 8.6e-4,0 8.6e-4,0 l 21.14507,2.529 h 0.003 v 0 c 0.512,0.059 0.93701,0.43 1.06801,0.935 v 0 L 477.8289,172 c 0.22099,0.856 -0.49001,1.674 -1.37201,1.57 z m 0,0 21.14608,2.53 z"
     fill="#04d361"
     stroke="#04d361"
     id="path457-5"
     style="stroke:#f26d21;stroke-width:1;stroke-opacity:1" />
  <path
     d="m 454.31196,172.185 21.14607,2.529 c 1.231,0.146 2.22501,-0.995 1.91501,-2.191 l -5.05202,-19.449 c -0.182,-0.703 -0.775,-1.224 -1.495,-1.306 l -21.14608,-2.529 c -1.23101,-0.147 -2.22501,0.995 -1.915,2.191 l 5.05201,19.449 c 0.18201,0.694 0.77501,1.215 1.49501,1.306 z"
     fill="#ffffff"
     id="path459-6"
     style="stroke-width:1" />
  <path
     d="m 470.58101,156.983 v 0 l 8.6e-4,0.005 c 8.6e-4,0.004 0.005,0.013 0.017,0.024 0.012,0.01 0.027,0.018 0.045,0.022 l 1.00601,0.117 v 0 c 0.021,0.002 0.04,-0.004 0.055,-0.022 0.016,-0.018 0.02,-0.037 0.015,-0.058 v 0 l -0.994,-3.817 v 0 l -0.003,-0.009 c -0.004,-0.019 -0.021,-0.037 -0.047,-0.04 l -1.01901,-0.119 v 0 c -0.021,-0.002 -0.04,0.005 -0.055,0.023 -0.016,0.018 -0.02,0.037 -0.015,0.057 v 0.001 z"
     fill="#04d361"
     stroke="#04d361"
     id="path461-3"
     style="fill:#f26d21;fill-opacity:1;stroke:#f26d21;stroke-width:1;stroke-opacity:1" />
  <path
     d="m 511.85115,167.355 c -6.45601,0.255 -26.63508,-0.165 -29.3071,-1.078 -1.149,-0.392 -3.97601,-0.986 -4.69601,-2.109 -0.73,-1.141 -1.35,-2.876 -2.10701,-3.004 -0.583,-0.101 -0.446,1.78 -0.273,2.465 0.328,1.233 0.547,1.872 0.985,2.438 0.146,0.192 -4.82401,0.904 -7.94302,0.11 -2.14201,-0.548 -1.74101,1.169 -0.301,1.89 0,0 -0.57401,1.497 0.94,1.991 0,0 -0.26501,1.661 1.19401,1.789 0.155,0.411 0.61099,1.151 1.87,1.507 1.823,0.511 4.98702,0.502 7.39502,0.602 1.42201,0.055 28.91481,4.356 33.77502,3.132 2.0243,-0.511 0.5654,-9.815 -1.53191,-9.733 z"
     fill="#bc8567"
     id="path463-9"
     style="fill:#fcddc6;fill-opacity:1;stroke-width:1" />
  <path
     d="m 493.3221,150.197 c 0,0 0.47419,1.799 1.1763,3.653 0.7842,2.045 1.85111,4.145 2.89971,3.954 0,0 14.26154,-4.511 13.78734,-5.972 -0.3556,-1.087 -0.9666,-2.502 -1.7234,-4.073 -2.36171,-4.912 -6.10942,-11.322 -7.62313,-13.806 -5.16111,-8.483 -7.27673,-7.405 -7.27673,-7.405 -7.23112,-0.347 -1.24009,23.649 -1.24009,23.649 z"
     fill="#6842c2"
     id="path465-4"
     style="fill:#2d8dff;fill-opacity:1;stroke-width:1" />
  <path
     d="m 494.4984,153.85 c 0.7842,2.045 1.85111,4.145 2.89971,3.954 0,0 14.26154,-4.511 13.78734,-5.972 -0.3556,-1.087 -0.9666,-2.502 -1.7234,-4.073 -2.62621,1.242 -9.71133,4.502 -14.96365,6.091 z"
     fill="#04d361"
     id="path467-8"
     style="fill:#f26d21;fill-opacity:1;stroke-width:1" />
  <path
     d="m 489.97508,193.835 c 0,0 -23.70808,-3.808 -36.47413,-11.414 0,0 14.28005,14.308 36.47413,11.414 z"
     fill="#47248f"
     id="path469-1"
     style="fill:#43302d;fill-opacity:1;stroke-width:1" />
  <path
     d="m 65.251418,100.2028 c 0,1.61437 -1.307194,2.92898 -2.924654,2.92898 -1.611898,0 -2.925272,-1.30905 -2.925272,-2.92898 0,-1.613749 1.307812,-2.928979 2.925272,-2.928979 1.61746,0.006 2.924654,1.31523 2.924654,2.928979 z"
     stroke="#04d361"
     stroke-width="1.23612"
     stroke-miterlimit="10"
     stroke-linecap="round"
     stroke-linejoin="round"
     id="path66-4"
     style="fill:#f26d21;fill-opacity:1;stroke:#f26d21;stroke-opacity:1" />
  <path
     d="m 73.438994,293.94408 c 1.619,-9.981 -5.149,-19.384 -15.116,-21.002 -9.967,-1.618 -19.36,5.161 -20.979,15.141 -1.619,9.98 5.149,19.383 15.116,21.002 9.967,1.618 19.36,-5.161 20.979,-15.141 z"
     fill="#6842C2"
     id="path501-8"
     style="fill:#2d8dff;fill-opacity:1" />
  <path
     d="m 64.408424,289.55123 -0.392,-1.7349 c -0.073,-0.3378 -0.42,-0.5478 -0.757,-0.4748 l -1.022,0.2374 c -0.264,0.064 -0.528,-0.0639 -0.674,-0.2922 -0.402,-0.63 -0.894,-1.1961 -1.459,-1.6709 -0.228,-0.1918 -0.301,-0.5023 -0.174,-0.7671 l 0.511,-1.05 c 0.155,-0.3105 0.018,-0.694 -0.292,-0.8401 l -1.605,-0.7761 c -0.31,-0.1553 -0.693,-0.0183 -0.839,0.2922 l -0.547,1.1414 c -0.118,0.2556 -0.401,0.3835 -0.674,0.3469 -0.338,-0.0456 -0.693,-0.073 -1.04,-0.073 -0.356,0 -0.702,0.0274 -1.039,0.073 -0.283,0.0366 -0.557,-0.0913 -0.675,-0.3469 l -0.547,-1.1414 c -0.155,-0.3105 -0.529,-0.4475 -0.839,-0.2922 l -1.605,0.7761 c -0.31,0.1552 -0.447,0.5296 -0.292,0.8401 l 0.511,1.05 c 0.127,0.2648 0.045,0.5753 -0.173,0.7671 -0.566,0.4839 -1.067,1.0409 -1.459,1.6709 -0.146,0.2283 -0.411,0.3562 -0.675,0.2922 l -1.022,-0.2374 c -0.337,-0.073 -0.674,0.137 -0.756,0.4748 l -0.392,1.7349 c -0.073,0.3379 0.136,0.6757 0.474,0.7579 l 1.295,0.2922 c -0.01,0.1826 -0.028,0.3561 -0.028,0.5387 0,0.8675 0.155,1.7076 0.438,2.4746 0.091,0.2556 0.027,0.5478 -0.192,0.7213 l -0.501,0.4018 c -0.274,0.2191 -0.319,0.6118 -0.1,0.8857 l 1.057,1.3971 c 0.219,0.2739 0.611,0.3195 0.885,0.1004 l 0.346,-0.2831 c 0.237,-0.1826 0.566,-0.1735 0.794,0.009 0.729,0.5661 1.559,1.0044 2.471,1.2692 0.273,0.0822 0.474,0.3196 0.474,0.6118 v 0.3652 c 0,0.347 0.283,0.63 0.629,0.63 h 1.778 c 0.347,0 0.629,-0.283 0.629,-0.63 v -0.3652 c 0,-0.2922 0.201,-0.5296 0.475,-0.6118 0.911,-0.2648 1.741,-0.694 2.471,-1.2692 0.237,-0.1827 0.565,-0.2009 0.793,-0.009 l 0.347,0.2831 c 0.273,0.2191 0.665,0.1735 0.884,-0.1004 l 1.113,-1.388 c 0.218,-0.2739 0.173,-0.6665 -0.101,-0.8857 l -0.501,-0.4017 c -0.219,-0.1735 -0.283,-0.4657 -0.192,-0.7214 0.283,-0.7761 0.438,-1.6071 0.438,-2.4745 0,-0.1826 -0.018,-0.3561 -0.027,-0.5387 l 1.294,-0.2922 c 0.347,-0.0914 0.557,-0.4292 0.484,-0.7671 z m -8.991,6.0996 c -2.49,0 -4.505,-2.018 -4.505,-4.5108 0,-2.4927 2.015,-4.5107 4.505,-4.5107 2.489,0 4.504,2.018 4.504,4.5107 0,2.4928 -2.015,4.5108 -4.504,4.5108 z"
     fill="#ffffff"
     id="path499-2-3" />
  <path
     d="m 574.31503,142.65818 c 1.619,-9.981 -5.149,-19.384 -15.116,-21.002 -9.967,-1.618 -19.36,5.161 -20.979,15.141 -1.619,9.98 5.149,19.383 15.116,21.002 9.967,1.618 19.36,-5.161 20.979,-15.141 z"
     fill="#6842C2"
     id="path501-8-7"
     style="fill:#2d8dff;fill-opacity:1" />
  <path
     id="path321-5"
     style="fill:#ffffff;stroke:none;stroke-width:0.449919"
     d="m 547.10116,132.96406 c -1.47664,0 -2.67491,1.20033 -2.67491,2.67931 v 8.10118 c 0,1.47893 1.19827,2.67842 2.67491,2.67842 h 19.29028 c 1.47709,0 2.67491,-1.19949 2.67491,-2.67842 v -8.10118 c 0,-1.47898 -1.19782,-2.67931 -2.67491,-2.67931 z m 2.99038,5.18901 c 0.84944,0 1.53869,0.6896 1.53869,1.54045 0,0.85084 -0.68925,1.54044 -1.53869,1.54044 -0.8499,0 -1.53869,-0.6896 -1.53869,-1.54044 0,-0.85085 0.68879,-1.54045 1.53869,-1.54045 z m 6.65476,0 c 0.84945,0 1.53781,0.6896 1.53781,1.54045 0,0.85084 -0.68836,1.54044 -1.53781,1.54044 -0.8499,0 -1.53869,-0.6896 -1.53869,-1.54044 0,-0.85085 0.68879,-1.54045 1.53869,-1.54045 z m 6.65388,0 c 0.8499,0 1.53869,0.6896 1.53869,1.54045 0,0.85084 -0.68879,1.54044 -1.53869,1.54044 -0.84945,0 -1.53781,-0.6896 -1.53781,-1.54044 0,-0.85085 0.68836,-1.54045 1.53781,-1.54045 z" />
  <path
     d="m 548.55319,145.55212 v 3.6892 l 3.94669,-3.95214 z"
     fill="#04d361"
     id="path323-93"
     style="fill:#ffffff;stroke:none;stroke-width:0.449919" />
  <path
     d="m 454.28283,47.539698 h -15.802 c -2.937,0 -5.317,-2.3832 -5.317,-5.3234 v -15.8242 c 0,-2.9402 2.38,-5.3234 5.317,-5.3234 h 15.802 c 2.936,0 5.316,2.3832 5.316,5.3234 v 15.8242 c 0,2.9402 -2.38,5.3234 -5.316,5.3234 z"
     fill="#6842C2"
     id="path497-9-7-8"
     style="fill:#2d8dff;fill-opacity:1" />
  <path
     d="m 450.40455,32.987118 c 0,2.8945 -2.343,5.2412 -5.234,5.2412 -2.89,0 -5.234,-2.3467 -5.234,-5.2412 0,-2.89461 2.344,-5.24131 5.234,-5.24131 2.882,0 5.234,2.3467 5.234,5.24131 z"
     stroke="#04d361"
     stroke-width="2"
     stroke-miterlimit="10"
     stroke-linecap="round"
     stroke-linejoin="round"
     id="path46"
     style="stroke:#ffffff" />
  <path
     d="m 448.95455,36.603018 3.693,3.7066"
     stroke="#04d361"
     stroke-width="2"
     stroke-miterlimit="10"
     stroke-linecap="round"
     stroke-linejoin="round"
     id="path48"
     style="stroke:#ffffff" />
  <path
     d="M 101.19458,67.864569 H 52.17182 c -3.28158,0 -5.94537,-3.3511 -5.94537,-7.4783 v -18.8192 c 0,-4.1272 2.66379,-7.4783 5.94537,-7.4783 h 49.02276 c 3.28125,0 5.94544,3.3511 5.94544,7.4783 v 18.8192 c 0,4.1363 -2.66419,7.4783 -5.94544,7.4783 z"
     fill="#6842C2"
     id="path479-1"
     style="fill:#2d8dff;fill-opacity:1;stroke-width:0.892251" />
  <path
     d="m 53.52935,65.928769 v 8.1997 l 6.99082,-8.7841 z"
     fill="#6842C2"
     id="path481-9"
     style="fill:#2d8dff;fill-opacity:1;stroke-width:0.892251" />
  <path
     d="M 101.50681,42.379769 H 87.917176"
     stroke="#ffffff"
     stroke-width="1.97767"
     stroke-miterlimit="10"
     stroke-linecap="round"
     stroke-linejoin="round"
     id="path483-9" />
  <path
     d="M 83.075142,42.379769 H 51.85974"
     stroke="#ffffff"
     stroke-width="1.97767"
     stroke-miterlimit="10"
     stroke-linecap="round"
     stroke-linejoin="round"
     id="path485-7" />
  <path
     d="M 101.50681,50.981269 H 76.171416"
     stroke="#ffffff"
     stroke-width="1.97767"
     stroke-miterlimit="10"
     stroke-linecap="round"
     stroke-linejoin="round"
     id="path487-8" />
  <path
     d="M 72.294828,50.981269 H 64.795849"
     stroke="#ffffff"
     stroke-width="1.97767"
     stroke-miterlimit="10"
     stroke-linecap="round"
     stroke-linejoin="round"
     id="path489-2" />
  <path
     d="M 60.77421,50.981269 H 51.85974"
     stroke="#ffffff"
     stroke-width="1.97767"
     stroke-miterlimit="10"
     stroke-linecap="round"
     stroke-linejoin="round"
     id="path491-5" />
  <path
     d="M 81.50681,59.573569 H 75.771859"
     stroke="#ffffff"
     stroke-width="1.97767"
     stroke-miterlimit="10"
     stroke-linecap="round"
     stroke-linejoin="round"
     id="path493-3" />
  <path
     d="M 72.258297,59.573569 H 51.569012"
     stroke="#ffffff"
     stroke-width="1.97767"
     stroke-miterlimit="10"
     stroke-linecap="round"
     stroke-linejoin="round"
     id="path495-4" />
  <path
     d="m 33.39779,214.07042 h -15.802 c -2.937,0 -5.317,-2.3832 -5.317,-5.3234 v -15.8242 c 0,-2.9402 2.38,-5.3234 5.317,-5.3234 h 15.802 c 2.936,0 5.316,2.3832 5.316,5.3234 v 15.8242 c 0,2.9402 -2.38,5.3234 -5.316,5.3234 z"
     fill="#6842C2"
     id="path497-9-7-8-9"
     style="fill:#2d8dff;fill-opacity:1" />
  <path
     d="m 29.51951,199.51784 c 0,2.8945 -2.343,5.2412 -5.234,5.2412 -2.89,0 -5.234,-2.3467 -5.234,-5.2412 0,-2.89461 2.344,-5.24131 5.234,-5.24131 2.882,0 5.234,2.3467 5.234,5.24131 z"
     stroke="#04d361"
     stroke-width="2"
     stroke-miterlimit="10"
     stroke-linecap="round"
     stroke-linejoin="round"
     id="path46-0"
     style="stroke:#ffffff" />
  <path
     d="m 28.06951,203.13374 3.693,3.7066"
     stroke="#04d361"
     stroke-width="2"
     stroke-miterlimit="10"
     stroke-linecap="round"
     stroke-linejoin="round"
     id="path48-2"
     style="stroke:#ffffff" />
  <path
     d="m 260.14033,23.39001 c 1.619,-9.981 -5.149,-19.3839995 -15.116,-21.0019995 -9.967,-1.61800003 -19.36,5.161 -20.979,15.1409995 -1.619,9.98 5.149,19.383 15.116,21.002 9.967,1.618 19.36,-5.161 20.979,-15.141 z"
     fill="#6842C2"
     id="path501-8-7-0"
     style="fill:#2d8dff;fill-opacity:1" />
  <path
     id="path321-5-1"
     style="fill:#ffffff;stroke:none;stroke-width:0.449919"
     d="m 232.92646,13.69589 c -1.47664,0 -2.67491,1.20033 -2.67491,2.67931 v 8.10118 c 0,1.47893 1.19827,2.67842 2.67491,2.67842 h 19.29028 c 1.47709,0 2.67491,-1.19949 2.67491,-2.67842 V 16.3752 c 0,-1.47898 -1.19782,-2.67931 -2.67491,-2.67931 z m 2.99038,5.18901 c 0.84944,0 1.53869,0.6896 1.53869,1.54045 0,0.85084 -0.68925,1.54044 -1.53869,1.54044 -0.8499,0 -1.53869,-0.6896 -1.53869,-1.54044 0,-0.85085 0.68879,-1.54045 1.53869,-1.54045 z m 6.65476,0 c 0.84945,0 1.53781,0.6896 1.53781,1.54045 0,0.85084 -0.68836,1.54044 -1.53781,1.54044 -0.8499,0 -1.53869,-0.6896 -1.53869,-1.54044 0,-0.85085 0.68879,-1.54045 1.53869,-1.54045 z m 6.65388,0 c 0.8499,0 1.53869,0.6896 1.53869,1.54045 0,0.85084 -0.68879,1.54044 -1.53869,1.54044 -0.84945,0 -1.53781,-0.6896 -1.53781,-1.54044 0,-0.85085 0.68836,-1.54045 1.53781,-1.54045 z" />
  <path
     d="m 234.37849,26.28395 v 3.6892 l 3.94669,-3.95214 z"
     fill="#04d361"
     id="path323-93-9"
     style="fill:#ffffff;stroke:none;stroke-width:0.449919" />
  <path
     d="m 362.08915,336.37761 h -15.802 c -2.937,0 -5.317,-2.3832 -5.317,-5.3234 v -15.8242 c 0,-2.9402 2.38,-5.3234 5.317,-5.3234 h 15.802 c 2.936,0 5.316,2.3832 5.316,5.3234 v 15.8242 c 0,2.9402 -2.38,5.3234 -5.316,5.3234 z"
     fill="#6842C2"
     id="path497-9-7-6"
     style="fill:#2d8dff;fill-opacity:1" />
  <path
     d="m 275.41392,294.36549 c 1.619,-9.981 -5.149,-19.384 -15.116,-21.002 -9.967,-1.618 -19.36,5.161 -20.979,15.141 -1.619,9.98 5.149,19.383 15.116,21.002 9.967,1.618 19.36,-5.161 20.979,-15.141 z"
     fill="#6842C2"
     id="path501-8-74"
     style="fill:#2d8dff;fill-opacity:1" />
  <rect
     style="opacity:1;fill:#ffffff;fill-opacity:1;stroke:#ffffff;stroke-width:1.21612;stroke-linecap:square;stroke-opacity:1"
     id="rect4229"
     width="2.1600442"
     height="16.402578"
     x="470.81314"
     y="-105.39617"
     transform="matrix(0.59136114,0.80640685,-0.80637772,0.59140085,0,0)"
     ry="1.0800054" />
  <rect
     style="opacity:1;fill:#ffffff;fill-opacity:1;stroke:#ffffff;stroke-width:1.02622;stroke-linecap:square;stroke-opacity:1"
     id="rect4229-6"
     width="2.6585348"
     height="9.4897537"
     x="-2.3650787"
     y="472.26111"
     transform="matrix(0.81634986,-0.5775577,0.73355582,0.67962921,0,0)"
     ry="1.2926936" />
  <path
     sodipodi:type="star"
     style="fill:#ffffff;fill-opacity:1;stroke:#ffffff;stroke-width:8.56063;stroke-linecap:square;stroke-opacity:1"
     id="path2919-0-0"
     sodipodi:sides="3"
     sodipodi:cx="418.74619"
     sodipodi:cy="310.40591"
     sodipodi:r1="30.201328"
     sodipodi:r2="15.100665"
     sodipodi:arg1="0.77652679"
     sodipodi:arg2="1.8237243"
     inkscape:flatsided="true"
     inkscape:rounded="0"
     inkscape:randomized="0"
     d="m 440.29036,331.57119 -50.64593,-13.09011 36.65933,-37.3156 z"
     inkscape:transform-center-x="-0.88514639"
     inkscape:transform-center-y="0.64193325"
     transform="matrix(-0.19527961,-0.01006965,0.01006965,-0.19527961,335.35617,355.39343)" />
  <rect
     style="fill:#ffffff;fill-opacity:1;stroke:#ffffff;stroke-width:1.67393;stroke-linecap:square;stroke-opacity:1"
     id="rect2921-1-6"
     width="1.284905"
     height="6.3909583"
     x="-8.7752943"
     y="389.35529"
     transform="rotate(-42.702295)" />
  <path
     style="opacity:0.47901369;fill:none;fill-opacity:1;stroke:#2d8dff;stroke-width:8.56063;stroke-linecap:square;stroke-opacity:1"
     id="path4385"
     sodipodi:type="arc"
     sodipodi:cx="249.56578"
     sodipodi:cy="136.94682"
     sodipodi:rx="34.814613"
     sodipodi:ry="35.118874"
     sodipodi:start="0"
     sodipodi:end="6.2738707"
     sodipodi:arc-type="arc"
     d="m 284.38039,136.94682 a 34.814613,35.118874 0 0 1 -34.73354,35.11878 34.814613,35.118874 0 0 1 -34.89531,-34.95522 34.814613,35.118874 0 0 1 34.57103,-35.28157 34.814613,35.118874 0 0 1 35.05631,34.7909"
     sodipodi:open="true" />
  <path
     sodipodi:type="star"
     style="opacity:0.47901369;fill:none;fill-opacity:1;stroke:#2d8dff;stroke-width:5;stroke-linecap:square;stroke-linejoin:round;stroke-miterlimit:4;stroke-dasharray:none;stroke-opacity:1"
     id="path4387"
     sodipodi:sides="3"
     sodipodi:cx="250.31835"
     sodipodi:cy="136.91844"
     sodipodi:r1="19.932333"
     sodipodi:r2="7.3523588"
     sodipodi:arg1="0.0015550529"
     sodipodi:arg2="1.0487526"
     inkscape:flatsided="true"
     inkscape:rounded="0"
     inkscape:randomized="0"
     d="m 270.25065,136.94944 -29.9253,17.21539 0.0537,-34.52377 z"
     inkscape:transform-center-x="-3.567814"
     inkscape:transform-center-y="0.12452348" />
  <path
     d="m 335.77994,62.086057 c 0,-0.922 -0.5849,-1.671 -1.30509,-1.671 -0.72019,0 -1.30432,0.749 -1.30432,1.671 0,0.922 0.58413,1.67 1.30432,1.67 0.72019,0 1.30509,-0.748 1.30509,-1.67 z"
     fill="#ffffff"
     id="path477-6"
     style="stroke-width:0.884287" />
  <path
     d="m 298.71601,70.585658 h 48.15146 c 3.22325,0 5.8397,-2.520196 5.8397,-5.624057 V 50.808615 c 0,-3.103862 -2.61645,-5.624058 -5.8397,-5.624058 h -48.15146 c -3.22294,0 -5.83978,2.520196 -5.83978,5.624058 v 14.152986 c 0,3.110705 2.61684,5.624057 5.83978,5.624057 z"
     fill="#6842C2"
     id="path479-6"
     style="fill:#2d8dff;fill-opacity:1;stroke-width:0.766861" />
  <path
     d="m 345.53407,69.12984 v 6.166586 L 338.6675,68.69034 Z"
     fill="#6842C2"
     id="path481-4"
     style="fill:#2d8dff;fill-opacity:1;stroke-width:0.766861" />
  <path
     d="m 298.40932,53.475557 h 13.3481"
     stroke="#ffffff"
     stroke-width="1.96002"
     stroke-miterlimit="10"
     stroke-linecap="round"
     stroke-linejoin="round"
     id="path483-6" />
  <path
     d="M 316.5134,53.475557 H 347.174"
     stroke="#ffffff"
     stroke-width="1.96002"
     stroke-miterlimit="10"
     stroke-linecap="round"
     stroke-linejoin="round"
     id="path485-2" />
  <path
     d="m 298.40932,62.669356 h 5.63302"
     stroke="#ffffff"
     stroke-width="1.96002"
     stroke-miterlimit="10"
     stroke-linecap="round"
     stroke-linejoin="round"
     id="path493-0" />
  <path
     d="m 307.49347,62.669356 h 20.32156"
     stroke="#ffffff"
     stroke-width="1.96002"
     stroke-miterlimit="10"
     stroke-linecap="round"
     stroke-linejoin="round"
     id="path495-1" />
  <path
     d="m 54.12636,100.2028 c 0,1.61437 -1.30719,2.92898 -2.92465,2.92898 -1.6119,0 -2.92528,-1.30905 -2.92528,-2.92898 0,-1.613749 1.30782,-2.928979 2.92528,-2.928979 1.61746,0.006 2.92465,1.31523 2.92465,2.928979 z"
     stroke="#04d361"
     stroke-width="1.23612"
     stroke-miterlimit="10"
     stroke-linecap="round"
     stroke-linejoin="round"
     id="path66-4-1"
     style="fill:#f26d21;fill-opacity:1;stroke:#f26d21;stroke-opacity:1" />
  <path
     d="m 43.0013,100.2028 c 0,1.61437 -1.30719,2.92898 -2.92465,2.92898 -1.6119,0 -2.92527,-1.30905 -2.92527,-2.92898 0,-1.613749 1.30781,-2.928979 2.92527,-2.928979 1.61746,0.006 2.92465,1.31523 2.92465,2.928979 z"
     stroke="#04d361"
     stroke-width="1.23612"
     stroke-miterlimit="10"
     stroke-linecap="round"
     stroke-linejoin="round"
     id="path66-4-3"
     style="fill:#f26d21;fill-opacity:1;stroke:#f26d21;stroke-opacity:1" />
  <path
     d="m 31.87624,100.2028 c 0,1.61437 -1.30719,2.92898 -2.92465,2.92898 -1.6119,0 -2.92528,-1.30905 -2.92528,-2.92898 0,-1.613749 1.30782,-2.928979 2.92528,-2.928979 1.61746,0.006 2.92465,1.31523 2.92465,2.928979 z"
     stroke="#04d361"
     stroke-width="1.23612"
     stroke-miterlimit="10"
     stroke-linecap="round"
     stroke-linejoin="round"
     id="path66-4-1-7"
     style="fill:#f26d21;fill-opacity:1;stroke:#f26d21;stroke-opacity:1" />
  <path
     d="m 65.251418,112.56397 c 0,1.61437 -1.307194,2.92898 -2.924654,2.92898 -1.611898,0 -2.925272,-1.30905 -2.925272,-2.92898 0,-1.61375 1.307812,-2.92898 2.925272,-2.92898 1.61746,0.006 2.924654,1.31523 2.924654,2.92898 z"
     stroke="#04d361"
     stroke-width="1.23612"
     stroke-miterlimit="10"
     stroke-linecap="round"
     stroke-linejoin="round"
     id="path66-4-7"
     style="fill:#f26d21;fill-opacity:1;stroke:#f26d21;stroke-opacity:1" />
  <path
     d="m 54.12636,112.56397 c 0,1.61437 -1.30719,2.92898 -2.92465,2.92898 -1.6119,0 -2.92528,-1.30905 -2.92528,-2.92898 0,-1.61375 1.30782,-2.92898 2.92528,-2.92898 1.61746,0.006 2.92465,1.31523 2.92465,2.92898 z"
     stroke="#04d361"
     stroke-width="1.23612"
     stroke-miterlimit="10"
     stroke-linecap="round"
     stroke-linejoin="round"
     id="path66-4-1-2"
     style="fill:#f26d21;fill-opacity:1;stroke:#f26d21;stroke-opacity:1" />
  <path
     d="m 43.0013,112.56397 c 0,1.61437 -1.30719,2.92898 -2.92464,2.92898 -1.6119,0 -2.92528,-1.30905 -2.92528,-2.92898 0,-1.61375 1.30782,-2.92898 2.92528,-2.92898 1.61746,0.006 2.92464,1.31523 2.92464,2.92898 z"
     stroke="#04d361"
     stroke-width="1.23612"
     stroke-miterlimit="10"
     stroke-linecap="round"
     stroke-linejoin="round"
     id="path66-4-3-6"
     style="fill:#f26d21;fill-opacity:1;stroke:#f26d21;stroke-opacity:1" />
  <path
     d="m 65.251418,124.92515 c 0,1.61437 -1.307194,2.92898 -2.924654,2.92898 -1.611898,0 -2.925272,-1.30905 -2.925272,-2.92898 0,-1.61375 1.307812,-2.92898 2.925272,-2.92898 1.61746,0.006 2.924654,1.31523 2.924654,2.92898 z"
     stroke="#04d361"
     stroke-width="1.23612"
     stroke-miterlimit="10"
     stroke-linecap="round"
     stroke-linejoin="round"
     id="path66-4-5"
     style="fill:#f26d21;fill-opacity:1;stroke:#f26d21;stroke-opacity:1" />
  <path
     d="m 54.12636,124.92515 c 0,1.61437 -1.30719,2.92898 -2.92465,2.92898 -1.6119,0 -2.92528,-1.30905 -2.92528,-2.92898 0,-1.61375 1.30782,-2.92898 2.92528,-2.92898 1.61746,0.006 2.92465,1.31523 2.92465,2.92898 z"
     stroke="#04d361"
     stroke-width="1.23612"
     stroke-miterlimit="10"
     stroke-linecap="round"
     stroke-linejoin="round"
     id="path66-4-1-20"
     style="fill:#f26d21;fill-opacity:1;stroke:#f26d21;stroke-opacity:1" />
  <path
     d="m 43.0013,124.92515 c 0,1.61437 -1.30719,2.92898 -2.92465,2.92898 -1.6119,0 -2.92527,-1.30905 -2.92527,-2.92898 0,-1.61375 1.30781,-2.92898 2.92527,-2.92898 1.61746,0.006 2.92465,1.31523 2.92465,2.92898 z"
     stroke="#04d361"
     stroke-width="1.23612"
     stroke-miterlimit="10"
     stroke-linecap="round"
     stroke-linejoin="round"
     id="path66-4-3-2"
     style="fill:#f26d21;fill-opacity:1;stroke:#f26d21;stroke-opacity:1" />
  <path
     d="m 31.87624,124.92515 c 0,1.61437 -1.30719,2.92898 -2.92465,2.92898 -1.6119,0 -2.92528,-1.30905 -2.92528,-2.92898 0,-1.61375 1.30782,-2.92898 2.92528,-2.92898 1.61746,0.006 2.92465,1.31523 2.92465,2.92898 z"
     stroke="#04d361"
     stroke-width="1.23612"
     stroke-miterlimit="10"
     stroke-linecap="round"
     stroke-linejoin="round"
     id="path66-4-1-7-9"
     style="fill:#f26d21;fill-opacity:1;stroke:#f26d21;stroke-opacity:1" />
  <path
     d="m 54.12636,137.28632 c 0,1.61437 -1.30719,2.92898 -2.92465,2.92898 -1.6119,0 -2.92528,-1.30904 -2.92528,-2.92898 0,-1.61375 1.30782,-2.92898 2.92528,-2.92898 1.61746,0.006 2.92465,1.31523 2.92465,2.92898 z"
     stroke="#04d361"
     stroke-width="1.23612"
     stroke-miterlimit="10"
     stroke-linecap="round"
     stroke-linejoin="round"
     id="path66-4-1-2-9"
     style="fill:#f26d21;fill-opacity:1;stroke:#f26d21;stroke-opacity:1" />
  <path
     d="m 43.0013,137.28632 c 0,1.61437 -1.30719,2.92898 -2.92464,2.92898 -1.6119,0 -2.92528,-1.30904 -2.92528,-2.92898 0,-1.61375 1.30782,-2.92898 2.92528,-2.92898 1.61746,0.006 2.92464,1.31523 2.92464,2.92898 z"
     stroke="#04d361"
     stroke-width="1.23612"
     stroke-miterlimit="10"
     stroke-linecap="round"
     stroke-linejoin="round"
     id="path66-4-3-6-9"
     style="fill:#f26d21;fill-opacity:1;stroke:#f26d21;stroke-opacity:1" />
  <path
     d="m 31.87625,137.28632 c 0,1.61437 -1.3072,2.92898 -2.92466,2.92898 -1.6119,0 -2.92527,-1.30904 -2.92527,-2.92898 0,-1.61375 1.30781,-2.92898 2.92527,-2.92898 1.61746,0.006 2.92466,1.31523 2.92466,2.92898 z"
     stroke="#04d361"
     stroke-width="1.23612"
     stroke-miterlimit="10"
     stroke-linecap="round"
     stroke-linejoin="round"
     id="path66-4-1-7-4-4"
     style="fill:#f26d21;fill-opacity:1;stroke:#f26d21;stroke-opacity:1" />
  <path
     d="m 19.51506,100.2028 c 0,1.61437 -1.30719,2.92898 -2.924649,2.92898 -1.6119,0 -2.92527,-1.30905 -2.92527,-2.92898 0,-1.613749 1.30781,-2.928979 2.92527,-2.928979 1.617459,0.006 2.924649,1.31523 2.924649,2.928979 z"
     stroke="#04d361"
     stroke-width="1.23612"
     stroke-miterlimit="10"
     stroke-linecap="round"
     stroke-linejoin="round"
     id="path66-4-51"
     style="fill:#f26d21;fill-opacity:1;stroke:#f26d21;stroke-opacity:1" />
  <path
     d="m 8.390011,100.2028 c 0,1.61437 -1.3072,2.92898 -2.92466,2.92898 -1.61189,0 -2.92527,-1.30905 -2.92527,-2.92898 0,-1.613749 1.30781,-2.928979 2.92527,-2.928979 1.61746,0.006 2.92466,1.31523 2.92466,2.928979 z"
     stroke="#04d361"
     stroke-width="1.23612"
     stroke-miterlimit="10"
     stroke-linecap="round"
     stroke-linejoin="round"
     id="path66-4-1-0"
     style="fill:#f26d21;fill-opacity:1;stroke:#f26d21;stroke-opacity:1" />
  <path
     d="m 19.51506,112.56397 c 0,1.61437 -1.30719,2.92898 -2.924649,2.92898 -1.6119,0 -2.92527,-1.30905 -2.92527,-2.92898 0,-1.61375 1.30781,-2.92898 2.92527,-2.92898 1.617459,0.006 2.924649,1.31523 2.924649,2.92898 z"
     stroke="#04d361"
     stroke-width="1.23612"
     stroke-miterlimit="10"
     stroke-linecap="round"
     stroke-linejoin="round"
     id="path66-4-7-8"
     style="fill:#f26d21;fill-opacity:1;stroke:#f26d21;stroke-opacity:1" />
  <path
     d="m 8.390011,112.56397 c 0,1.61437 -1.3072,2.92898 -2.92466,2.92898 -1.61189,0 -2.92527,-1.30905 -2.92527,-2.92898 0,-1.61375 1.30781,-2.92898 2.92527,-2.92898 1.61746,0.006 2.92466,1.31523 2.92466,2.92898 z"
     stroke="#04d361"
     stroke-width="1.23612"
     stroke-miterlimit="10"
     stroke-linecap="round"
     stroke-linejoin="round"
     id="path66-4-1-2-8"
     style="fill:#f26d21;fill-opacity:1;stroke:#f26d21;stroke-opacity:1" />
  <path
     d="m 19.51506,124.92515 c 0,1.61437 -1.30719,2.92898 -2.924649,2.92898 -1.6119,0 -2.92527,-1.30905 -2.92527,-2.92898 0,-1.61375 1.30781,-2.92898 2.92527,-2.92898 1.617459,0.006 2.924649,1.31523 2.924649,2.92898 z"
     stroke="#04d361"
     stroke-width="1.23612"
     stroke-miterlimit="10"
     stroke-linecap="round"
     stroke-linejoin="round"
     id="path66-4-5-4"
     style="fill:#f26d21;fill-opacity:1;stroke:#f26d21;stroke-opacity:1" />
  <path
     d="m 19.51506,137.28632 c 0,1.61437 -1.30719,2.92898 -2.924649,2.92898 -1.6119,0 -2.92527,-1.30904 -2.92527,-2.92898 0,-1.61375 1.30781,-2.92898 2.92527,-2.92898 1.617459,0.006 2.924649,1.31523 2.924649,2.92898 z"
     stroke="#04d361"
     stroke-width="1.23612"
     stroke-miterlimit="10"
     stroke-linecap="round"
     stroke-linejoin="round"
     id="path66-4-7-0-0"
     style="fill:#f26d21;fill-opacity:1;stroke:#f26d21;stroke-opacity:1" />
  <path
     d="m 8.390011,137.28632 c 0,1.61437 -1.3072,2.92898 -2.92466,2.92898 -1.61189,0 -2.92527,-1.30904 -2.92527,-2.92898 0,-1.61375 1.30781,-2.92898 2.92527,-2.92898 1.61746,0.006 2.92466,1.31523 2.92466,2.92898 z"
     stroke="#04d361"
     stroke-width="1.23612"
     stroke-miterlimit="10"
     stroke-linecap="round"
     stroke-linejoin="round"
     id="path66-4-1-2-9-9"
     style="fill:#f26d21;fill-opacity:1;stroke:#f26d21;stroke-opacity:1" />
  <path
     d="m 27.22631,110.88355 3.40303,3.40859"
     stroke="#04d361"
     stroke-width="2"
     stroke-miterlimit="10"
     stroke-linecap="round"
     stroke-linejoin="round"
     id="path54-9-9"
     style="fill:#f26d21;fill-opacity:1;stroke:#f26d21;stroke-width:2.47224;stroke-miterlimit:10;stroke-dasharray:none;stroke-opacity:1" />
  <path
     d="m 30.62934,110.88355 -3.40303,3.40859"
     stroke="#04d361"
     stroke-width="2"
     stroke-miterlimit="10"
     stroke-linecap="round"
     stroke-linejoin="round"
     id="path56-4-7"
     style="fill:#f26d21;fill-opacity:1;stroke:#f26d21;stroke-width:2.47224;stroke-miterlimit:10;stroke-dasharray:none;stroke-opacity:1" />
  <path
     d="m 3.592851,123.38724 3.40303,3.40859"
     stroke="#04d361"
     stroke-width="2"
     stroke-miterlimit="10"
     stroke-linecap="round"
     stroke-linejoin="round"
     id="path54-9-9-8"
     style="fill:#f26d21;fill-opacity:1;stroke:#f26d21;stroke-width:2.47224;stroke-miterlimit:10;stroke-dasharray:none;stroke-opacity:1" />
  <path
     d="m 6.995881,123.38724 -3.40303,3.40859"
     stroke="#04d361"
     stroke-width="2"
     stroke-miterlimit="10"
     stroke-linecap="round"
     stroke-linejoin="round"
     id="path56-4-7-5"
     style="fill:#f26d21;fill-opacity:1;stroke:#f26d21;stroke-width:2.47224;stroke-miterlimit:10;stroke-dasharray:none;stroke-opacity:1" />
  <path
     d="m 60.567727,135.56589 3.403032,3.4086"
     stroke="#04d361"
     stroke-width="2"
     stroke-miterlimit="10"
     stroke-linecap="round"
     stroke-linejoin="round"
     id="path54-9-9-8-3"
     style="fill:#f26d21;fill-opacity:1;stroke:#f26d21;stroke-width:2.47224;stroke-miterlimit:10;stroke-dasharray:none;stroke-opacity:1" />
  <path
     d="m 63.970759,135.56589 -3.403032,3.4086"
     stroke="#04d361"
     stroke-width="2"
     stroke-miterlimit="10"
     stroke-linecap="round"
     stroke-linejoin="round"
     id="path56-4-7-5-3"
     style="fill:#f26d21;fill-opacity:1;stroke:#f26d21;stroke-width:2.47224;stroke-miterlimit:10;stroke-dasharray:none;stroke-opacity:1" />
  <path
     d="m 556.99557,193.01377 c 1.6143,0.0142 2.91741,1.33282 2.90324,2.95021 -0.0141,1.61184 -1.33464,2.91369 -2.9545,2.89949 -1.61369,-0.0141 -2.91741,-1.33342 -2.90324,-2.95082 0.0202,-1.61734 1.34081,-2.91302 2.9545,-2.89888 z"
     stroke="#04d361"
     stroke-width="1.23612"
     stroke-miterlimit="10"
     stroke-linecap="round"
     stroke-linejoin="round"
     id="path66-4-17"
     style="fill:#f26d21;fill-opacity:1;stroke:#f26d21;stroke-opacity:1" />
  <path
     d="m 556.89808,204.1384 c 1.61431,0.0142 2.91742,1.33281 2.90324,2.95021 -0.0141,1.61184 -1.33463,2.91369 -2.9545,2.8995 -1.61369,-0.0141 -2.9174,-1.33344 -2.90323,-2.95083 0.0202,-1.61735 1.3408,-2.91302 2.95449,-2.89888 z"
     stroke="#04d361"
     stroke-width="1.23612"
     stroke-miterlimit="10"
     stroke-linecap="round"
     stroke-linejoin="round"
     id="path66-4-1-5"
     style="fill:#f26d21;fill-opacity:1;stroke:#f26d21;stroke-opacity:1" />
  <path
     d="m 556.8006,215.26304 c 1.61431,0.0141 2.91741,1.3328 2.90324,2.9502 -0.0141,1.61184 -1.33463,2.91369 -2.9545,2.89949 -1.61369,-0.0141 -2.91741,-1.33342 -2.90324,-2.95082 0.0202,-1.61735 1.34081,-2.91301 2.9545,-2.89887 z"
     stroke="#04d361"
     stroke-width="1.23612"
     stroke-miterlimit="10"
     stroke-linecap="round"
     stroke-linejoin="round"
     id="path66-4-3-1"
     style="fill:#f26d21;fill-opacity:1;stroke:#f26d21;stroke-opacity:1" />
  <path
     d="m 556.70312,226.38767 c 1.6143,0.0142 2.91741,1.3328 2.90324,2.9502 -0.0141,1.61184 -1.33464,2.9137 -2.9545,2.89951 -1.61369,-0.0142 -2.91741,-1.33344 -2.90324,-2.95084 0.0202,-1.61734 1.34081,-2.91301 2.9545,-2.89887 z"
     stroke="#04d361"
     stroke-width="1.23612"
     stroke-miterlimit="10"
     stroke-linecap="round"
     stroke-linejoin="round"
     id="path66-4-1-7-7"
     style="fill:#f26d21;fill-opacity:1;stroke:#f26d21;stroke-opacity:1" />
  <path
     d="m 569.35626,193.12209 c 1.61431,0.0141 2.91742,1.33281 2.90324,2.95021 -0.0141,1.61183 -1.33463,2.91368 -2.9545,2.89949 -1.61369,-0.0141 -2.91741,-1.33343 -2.90323,-2.95082 0.0202,-1.61735 1.3408,-2.91302 2.95449,-2.89888 z"
     stroke="#04d361"
     stroke-width="1.23612"
     stroke-miterlimit="10"
     stroke-linecap="round"
     stroke-linejoin="round"
     id="path66-4-7-4"
     style="fill:#f26d21;fill-opacity:1;stroke:#f26d21;stroke-opacity:1" />
  <path
     d="m 569.25878,204.24672 c 1.61431,0.0142 2.91741,1.3328 2.90324,2.9502 -0.0141,1.61184 -1.33463,2.9137 -2.9545,2.8995 -1.61369,-0.0141 -2.91741,-1.33343 -2.90324,-2.95083 0.0202,-1.61734 1.34081,-2.91301 2.9545,-2.89887 z"
     stroke="#04d361"
     stroke-width="1.23612"
     stroke-miterlimit="10"
     stroke-linecap="round"
     stroke-linejoin="round"
     id="path66-4-1-2-1"
     style="fill:#f26d21;fill-opacity:1;stroke:#f26d21;stroke-opacity:1" />
  <path
     d="m 569.16129,215.37135 c 1.61431,0.0142 2.91742,1.33281 2.90325,2.95019 -0.0141,1.61184 -1.33464,2.9137 -2.95451,2.89951 -1.61368,-0.0141 -2.9174,-1.33344 -2.90323,-2.95084 0.0202,-1.61734 1.34081,-2.913 2.95449,-2.89886 z"
     stroke="#04d361"
     stroke-width="1.23612"
     stroke-miterlimit="10"
     stroke-linecap="round"
     stroke-linejoin="round"
     id="path66-4-3-6-7"
     style="fill:#f26d21;fill-opacity:1;stroke:#f26d21;stroke-opacity:1" />
  <path
     d="m 581.71697,193.2304 c 1.61431,0.0142 2.91741,1.33282 2.90324,2.95021 -0.0141,1.61184 -1.33463,2.91369 -2.9545,2.89949 -1.61369,-0.0141 -2.91741,-1.33342 -2.90324,-2.95082 0.0202,-1.61734 1.34081,-2.91302 2.9545,-2.89888 z"
     stroke="#04d361"
     stroke-width="1.23612"
     stroke-miterlimit="10"
     stroke-linecap="round"
     stroke-linejoin="round"
     id="path66-4-5-1"
     style="fill:#f26d21;fill-opacity:1;stroke:#f26d21;stroke-opacity:1" />
  <path
     d="m 581.61948,204.35503 c 1.61431,0.0142 2.91742,1.33281 2.90324,2.95021 -0.0141,1.61184 -1.33463,2.91369 -2.9545,2.8995 -1.61368,-0.0141 -2.9174,-1.33344 -2.90323,-2.95083 0.0202,-1.61735 1.34081,-2.91302 2.95449,-2.89888 z"
     stroke="#04d361"
     stroke-width="1.23612"
     stroke-miterlimit="10"
     stroke-linecap="round"
     stroke-linejoin="round"
     id="path66-4-1-20-1"
     style="fill:#f26d21;fill-opacity:1;stroke:#f26d21;stroke-opacity:1" />
  <path
     d="m 581.522,215.47967 c 1.61431,0.0141 2.91741,1.3328 2.90324,2.9502 -0.0141,1.61184 -1.33463,2.91369 -2.9545,2.89949 -1.61369,-0.0141 -2.91741,-1.33342 -2.90323,-2.95082 0.0202,-1.61735 1.3408,-2.91301 2.95449,-2.89887 z"
     stroke="#04d361"
     stroke-width="1.23612"
     stroke-miterlimit="10"
     stroke-linecap="round"
     stroke-linejoin="round"
     id="path66-4-3-2-1"
     style="fill:#f26d21;fill-opacity:1;stroke:#f26d21;stroke-opacity:1" />
  <path
     d="m 581.42452,226.6043 c 1.6143,0.0142 2.91741,1.33281 2.90324,2.9502 -0.0141,1.61184 -1.33464,2.9137 -2.9545,2.89951 -1.61369,-0.0142 -2.91741,-1.33344 -2.90324,-2.95084 0.0202,-1.61734 1.34081,-2.91301 2.9545,-2.89887 z"
     stroke="#04d361"
     stroke-width="1.23612"
     stroke-miterlimit="10"
     stroke-linecap="round"
     stroke-linejoin="round"
     id="path66-4-1-7-9-7"
     style="fill:#f26d21;fill-opacity:1;stroke:#f26d21;stroke-opacity:1" />
  <path
     d="m 593.98018,204.46335 c 1.61431,0.0142 2.91741,1.3328 2.90324,2.9502 -0.0141,1.61184 -1.33462,2.9137 -2.9545,2.8995 -1.61369,-0.0141 -2.91741,-1.33343 -2.90324,-2.95083 0.0202,-1.61734 1.34081,-2.91301 2.9545,-2.89887 z"
     stroke="#04d361"
     stroke-width="1.23612"
     stroke-miterlimit="10"
     stroke-linecap="round"
     stroke-linejoin="round"
     id="path66-4-1-2-9-0"
     style="fill:#f26d21;fill-opacity:1;stroke:#f26d21;stroke-opacity:1" />
  <path
     d="m 593.8827,215.58798 c 1.6143,0.0142 2.91741,1.33281 2.90324,2.9502 -0.0141,1.61183 -1.33463,2.91369 -2.9545,2.8995 -1.61369,-0.0141 -2.91741,-1.33344 -2.90324,-2.95084 0.0202,-1.61734 1.34081,-2.913 2.9545,-2.89886 z"
     stroke="#04d361"
     stroke-width="1.23612"
     stroke-miterlimit="10"
     stroke-linecap="round"
     stroke-linejoin="round"
     id="path66-4-3-6-9-4"
     style="fill:#f26d21;fill-opacity:1;stroke:#f26d21;stroke-opacity:1" />
  <path
     d="m 593.78521,226.71261 c 1.61431,0.0141 2.91742,1.33281 2.90324,2.95021 -0.0141,1.61184 -1.33462,2.91369 -2.9545,2.89949 -1.61369,-0.0141 -2.91741,-1.33342 -2.90323,-2.95082 0.0202,-1.61735 1.3408,-2.91303 2.95449,-2.89888 z"
     stroke="#04d361"
     stroke-width="1.23612"
     stroke-miterlimit="10"
     stroke-linecap="round"
     stroke-linejoin="round"
     id="path66-4-1-7-4-4-0"
     style="fill:#f26d21;fill-opacity:1;stroke:#f26d21;stroke-opacity:1" />
  <path
     d="m 556.5948,236.74838 c 1.61431,0.0141 2.91741,1.3328 2.90324,2.9502 -0.0141,1.61184 -1.33463,2.91369 -2.9545,2.89949 -1.61369,-0.0141 -2.91741,-1.33342 -2.90323,-2.95082 0.0202,-1.61735 1.3408,-2.91302 2.95449,-2.89887 z"
     stroke="#04d361"
     stroke-width="1.23612"
     stroke-miterlimit="10"
     stroke-linecap="round"
     stroke-linejoin="round"
     id="path66-4-51-8"
     style="fill:#f26d21;fill-opacity:1;stroke:#f26d21;stroke-opacity:1" />
  <path
     d="m 556.49732,247.873 c 1.61431,0.0141 2.91741,1.33281 2.90324,2.95021 -0.0141,1.61183 -1.33464,2.91369 -2.9545,2.89949 -1.61369,-0.0141 -2.91741,-1.33342 -2.90324,-2.95082 0.0202,-1.61734 1.34081,-2.91302 2.9545,-2.89888 z"
     stroke="#04d361"
     stroke-width="1.23612"
     stroke-miterlimit="10"
     stroke-linecap="round"
     stroke-linejoin="round"
     id="path66-4-1-0-5"
     style="fill:#f26d21;fill-opacity:1;stroke:#f26d21;stroke-opacity:1" />
  <path
     d="m 568.9555,236.85669 c 1.6143,0.0142 2.91741,1.33281 2.90324,2.9502 -0.0141,1.61184 -1.33464,2.91369 -2.9545,2.8995 -1.61369,-0.0141 -2.91741,-1.33343 -2.90324,-2.95083 0.0202,-1.61734 1.34081,-2.91301 2.9545,-2.89887 z"
     stroke="#04d361"
     stroke-width="1.23612"
     stroke-miterlimit="10"
     stroke-linecap="round"
     stroke-linejoin="round"
     id="path66-4-7-8-1"
     style="fill:#f26d21;fill-opacity:1;stroke:#f26d21;stroke-opacity:1" />
  <path
     d="m 568.85801,247.98131 c 1.61431,0.0142 2.91742,1.33282 2.90324,2.95022 -0.0141,1.61182 -1.33463,2.91368 -2.9545,2.89949 -1.61369,-0.0141 -2.91741,-1.33343 -2.90323,-2.95082 0.0202,-1.61735 1.3408,-2.91303 2.95449,-2.89889 z"
     stroke="#04d361"
     stroke-width="1.23612"
     stroke-miterlimit="10"
     stroke-linecap="round"
     stroke-linejoin="round"
     id="path66-4-1-2-8-6"
     style="fill:#f26d21;fill-opacity:1;stroke:#f26d21;stroke-opacity:1" />
  <path
     d="m 581.3162,236.96501 c 1.61431,0.0141 2.91741,1.3328 2.90324,2.9502 -0.0141,1.61184 -1.33463,2.91369 -2.9545,2.89949 -1.61369,-0.0141 -2.91741,-1.33342 -2.90323,-2.95082 0.0202,-1.61735 1.3408,-2.91302 2.95449,-2.89887 z"
     stroke="#04d361"
     stroke-width="1.23612"
     stroke-miterlimit="10"
     stroke-linecap="round"
     stroke-linejoin="round"
     id="path66-4-5-4-6"
     style="fill:#f26d21;fill-opacity:1;stroke:#f26d21;stroke-opacity:1" />
  <path
     d="m 593.6769,237.07332 c 1.61431,0.0142 2.91741,1.33281 2.90324,2.9502 -0.0141,1.61184 -1.33463,2.91369 -2.9545,2.8995 -1.61369,-0.0141 -2.91741,-1.33343 -2.90324,-2.95083 0.0202,-1.61734 1.34081,-2.91301 2.9545,-2.89887 z"
     stroke="#04d361"
     stroke-width="1.23612"
     stroke-miterlimit="10"
     stroke-linecap="round"
     stroke-linejoin="round"
     id="path66-4-7-0-0-2"
     style="fill:#f26d21;fill-opacity:1;stroke:#f26d21;stroke-opacity:1" />
  <path
     d="m 593.57941,248.19794 c 1.61431,0.0142 2.91742,1.33282 2.90324,2.95022 -0.0141,1.61182 -1.33462,2.91368 -2.9545,2.89949 -1.61368,-0.0141 -2.9174,-1.33343 -2.90323,-2.95082 0.0202,-1.61735 1.34081,-2.91303 2.95449,-2.89889 z"
     stroke="#04d361"
     stroke-width="1.23612"
     stroke-miterlimit="10"
     stroke-linecap="round"
     stroke-linejoin="round"
     id="path66-4-1-2-9-9-1"
     style="fill:#f26d21;fill-opacity:1;stroke:#f26d21;stroke-opacity:1" />
  <path
     d="m 567.34271,231.13101 3.43828,-3.37303"
     stroke="#04d361"
     stroke-width="2"
     stroke-miterlimit="10"
     stroke-linecap="round"
     stroke-linejoin="round"
     id="path54-9-9-9"
     style="fill:#f26d21;fill-opacity:1;stroke:#f26d21;stroke-width:2.47224;stroke-miterlimit:10;stroke-dasharray:none;stroke-opacity:1" />
  <path
     d="m 567.37253,227.72811 3.37864,3.43277"
     stroke="#04d361"
     stroke-width="2"
     stroke-miterlimit="10"
     stroke-linecap="round"
     stroke-linejoin="round"
     id="path56-4-7-6"
     style="fill:#f26d21;fill-opacity:1;stroke:#f26d21;stroke-width:2.47224;stroke-miterlimit:10;stroke-dasharray:none;stroke-opacity:1" />
  <path
     d="m 579.63883,252.87313 3.43828,-3.37303"
     stroke="#04d361"
     stroke-width="2"
     stroke-miterlimit="10"
     stroke-linecap="round"
     stroke-linejoin="round"
     id="path54-9-9-8-4"
     style="fill:#f26d21;fill-opacity:1;stroke:#f26d21;stroke-width:2.47224;stroke-miterlimit:10;stroke-dasharray:none;stroke-opacity:1" />
  <path
     d="m 579.66865,249.47023 3.37864,3.43277"
     stroke="#04d361"
     stroke-width="2"
     stroke-miterlimit="10"
     stroke-linecap="round"
     stroke-linejoin="round"
     id="path56-4-7-5-8"
     style="fill:#f26d21;fill-opacity:1;stroke:#f26d21;stroke-width:2.47224;stroke-miterlimit:10;stroke-dasharray:none;stroke-opacity:1" />
  <path
     d="m 592.31626,198.00715 3.43829,-3.37303"
     stroke="#04d361"
     stroke-width="2"
     stroke-miterlimit="10"
     stroke-linecap="round"
     stroke-linejoin="round"
     id="path54-9-9-8-3-0"
     style="fill:#f26d21;fill-opacity:1;stroke:#f26d21;stroke-width:2.47224;stroke-miterlimit:10;stroke-dasharray:none;stroke-opacity:1" />
  <path
     d="m 592.34608,194.60425 3.37865,3.43277"
     stroke="#04d361"
     stroke-width="2"
     stroke-miterlimit="10"
     stroke-linecap="round"
     stroke-linejoin="round"
     id="path56-4-7-5-3-8"
     style="fill:#f26d21;fill-opacity:1;stroke:#f26d21;stroke-width:2.47224;stroke-miterlimit:10;stroke-dasharray:none;stroke-opacity:1" />
  <path
     d="m 556.49732,257.87299 c 1.6143,0.0142 2.91741,1.33282 2.90324,2.95021 -0.0141,1.61184 -1.33464,2.91369 -2.9545,2.89949 -1.61369,-0.0141 -2.91741,-1.33342 -2.90324,-2.95082 0.0202,-1.61734 1.34081,-2.91302 2.9545,-2.89888 z"
     stroke="#04d361"
     stroke-width="1.23612"
     stroke-miterlimit="10"
     stroke-linecap="round"
     stroke-linejoin="round"
     id="path66-4-17-4"
     style="fill:#f26d21;fill-opacity:1;stroke:#f26d21;stroke-opacity:1" />
  <path
     d="m 556.39983,268.99762 c 1.61431,0.0142 2.91742,1.33281 2.90324,2.95021 -0.0141,1.61184 -1.33463,2.91369 -2.9545,2.8995 -1.61369,-0.0141 -2.9174,-1.33344 -2.90323,-2.95083 0.0202,-1.61735 1.3408,-2.91302 2.95449,-2.89888 z"
     stroke="#04d361"
     stroke-width="1.23612"
     stroke-miterlimit="10"
     stroke-linecap="round"
     stroke-linejoin="round"
     id="path66-4-1-5-6"
     style="fill:#f26d21;fill-opacity:1;stroke:#f26d21;stroke-opacity:1" />
  <path
     d="m 568.85801,257.98131 c 1.61431,0.0141 2.91742,1.33281 2.90324,2.95021 -0.0141,1.61183 -1.33463,2.91368 -2.9545,2.89949 -1.61369,-0.0141 -2.91741,-1.33343 -2.90323,-2.95082 0.0202,-1.61735 1.3408,-2.91302 2.95449,-2.89888 z"
     stroke="#04d361"
     stroke-width="1.23612"
     stroke-miterlimit="10"
     stroke-linecap="round"
     stroke-linejoin="round"
     id="path66-4-7-4-3"
     style="fill:#f26d21;fill-opacity:1;stroke:#f26d21;stroke-opacity:1" />
  <path
     d="m 568.76053,269.10594 c 1.61431,0.0142 2.91741,1.3328 2.90324,2.9502 -0.0141,1.61184 -1.33463,2.9137 -2.9545,2.8995 -1.61369,-0.0141 -2.91741,-1.33343 -2.90324,-2.95083 0.0202,-1.61734 1.34081,-2.91301 2.9545,-2.89887 z"
     stroke="#04d361"
     stroke-width="1.23612"
     stroke-miterlimit="10"
     stroke-linecap="round"
     stroke-linejoin="round"
     id="path66-4-1-2-1-7"
     style="fill:#f26d21;fill-opacity:1;stroke:#f26d21;stroke-opacity:1" />
  <path
     d="m 581.21872,258.08962 c 1.61431,0.0142 2.91741,1.33282 2.90324,2.95021 -0.0141,1.61184 -1.33463,2.91369 -2.9545,2.89949 -1.61369,-0.0141 -2.91741,-1.33342 -2.90324,-2.95082 0.0202,-1.61734 1.34081,-2.91302 2.9545,-2.89888 z"
     stroke="#04d361"
     stroke-width="1.23612"
     stroke-miterlimit="10"
     stroke-linecap="round"
     stroke-linejoin="round"
     id="path66-4-5-1-9"
     style="fill:#f26d21;fill-opacity:1;stroke:#f26d21;stroke-opacity:1" />
  <path
     d="m 581.12123,269.21425 c 1.61431,0.0142 2.91742,1.33281 2.90324,2.95021 -0.0141,1.61184 -1.33463,2.91369 -2.9545,2.8995 -1.61368,-0.0141 -2.9174,-1.33344 -2.90323,-2.95083 0.0202,-1.61735 1.34081,-2.91302 2.95449,-2.89888 z"
     stroke="#04d361"
     stroke-width="1.23612"
     stroke-miterlimit="10"
     stroke-linecap="round"
     stroke-linejoin="round"
     id="path66-4-1-20-1-7"
     style="fill:#f26d21;fill-opacity:1;stroke:#f26d21;stroke-opacity:1" />
  <path
     d="m 593.48193,269.32257 c 1.61431,0.0142 2.91741,1.3328 2.90324,2.9502 -0.0141,1.61184 -1.33462,2.9137 -2.9545,2.8995 -1.61369,-0.0141 -2.91741,-1.33343 -2.90324,-2.95083 0.0202,-1.61734 1.34081,-2.91301 2.9545,-2.89887 z"
     stroke="#04d361"
     stroke-width="1.23612"
     stroke-miterlimit="10"
     stroke-linecap="round"
     stroke-linejoin="round"
     id="path66-4-1-2-9-0-4"
     style="fill:#f26d21;fill-opacity:1;stroke:#f26d21;stroke-opacity:1" />
  <path
     d="m 591.81801,262.86637 3.43829,-3.37303"
     stroke="#04d361"
     stroke-width="2"
     stroke-miterlimit="10"
     stroke-linecap="round"
     stroke-linejoin="round"
     id="path54-9-9-8-3-0-9"
     style="fill:#f26d21;fill-opacity:1;stroke:#f26d21;stroke-width:2.47224;stroke-miterlimit:10;stroke-dasharray:none;stroke-opacity:1" />
  <path
     d="m 591.84783,259.46347 3.37865,3.43277"
     stroke="#04d361"
     stroke-width="2"
     stroke-miterlimit="10"
     stroke-linecap="round"
     stroke-linejoin="round"
     id="path56-4-7-5-3-8-1"
     style="fill:#f26d21;fill-opacity:1;stroke:#f26d21;stroke-width:2.47224;stroke-miterlimit:10;stroke-dasharray:none;stroke-opacity:1" />
  <path
     d="m 163.33615,9.933852 c 0,1.61437 -1.30719,2.92898 -2.92464,2.92898 -1.6119,0 -2.92528,-1.30905 -2.92528,-2.92898 0,-1.61375 1.30782,-2.92898 2.92528,-2.92898 1.61746,0.006 2.92464,1.31523 2.92464,2.92898 z"
     stroke="#04d361"
     stroke-width="1.23612"
     stroke-miterlimit="10"
     stroke-linecap="round"
     stroke-linejoin="round"
     id="path66-4-3-6-70"
     style="fill:#f26d21;fill-opacity:1;stroke:#f26d21;stroke-opacity:1" />
  <path
     d="m 163.33615,22.295032 c 0,1.61437 -1.30719,2.92898 -2.92465,2.92898 -1.6119,0 -2.92527,-1.30905 -2.92527,-2.92898 0,-1.61375 1.30781,-2.92898 2.92527,-2.92898 1.61746,0.006 2.92465,1.31523 2.92465,2.92898 z"
     stroke="#04d361"
     stroke-width="1.23612"
     stroke-miterlimit="10"
     stroke-linecap="round"
     stroke-linejoin="round"
     id="path66-4-3-2-6"
     style="fill:#f26d21;fill-opacity:1;stroke:#f26d21;stroke-opacity:1" />
  <path
     d="m 152.21109,22.295032 c 0,1.61437 -1.30719,2.92898 -2.92465,2.92898 -1.6119,0 -2.92528,-1.30905 -2.92528,-2.92898 0,-1.61375 1.30782,-2.92898 2.92528,-2.92898 1.61746,0.006 2.92465,1.31523 2.92465,2.92898 z"
     stroke="#04d361"
     stroke-width="1.23612"
     stroke-miterlimit="10"
     stroke-linecap="round"
     stroke-linejoin="round"
     id="path66-4-1-7-9-0"
     style="fill:#f26d21;fill-opacity:1;stroke:#f26d21;stroke-opacity:1" />
  <path
     d="m 139.84991,9.933852 c 0,1.61437 -1.30719,2.92898 -2.92465,2.92898 -1.6119,0 -2.92527,-1.30905 -2.92527,-2.92898 0,-1.61375 1.30781,-2.92898 2.92527,-2.92898 1.61746,0.006 2.92465,1.31523 2.92465,2.92898 z"
     stroke="#04d361"
     stroke-width="1.23612"
     stroke-miterlimit="10"
     stroke-linecap="round"
     stroke-linejoin="round"
     id="path66-4-7-8-8"
     style="fill:#f26d21;fill-opacity:1;stroke:#f26d21;stroke-opacity:1" />
  <path
     d="m 128.72486,9.933852 c 0,1.61437 -1.3072,2.92898 -2.92466,2.92898 -1.61189,0 -2.92527,-1.30905 -2.92527,-2.92898 0,-1.61375 1.30781,-2.92898 2.92527,-2.92898 1.61746,0.006 2.92466,1.31523 2.92466,2.92898 z"
     stroke="#04d361"
     stroke-width="1.23612"
     stroke-miterlimit="10"
     stroke-linecap="round"
     stroke-linejoin="round"
     id="path66-4-1-2-8-5"
     style="fill:#f26d21;fill-opacity:1;stroke:#f26d21;stroke-opacity:1" />
  <path
     d="m 139.84991,22.295032 c 0,1.61437 -1.30719,2.92898 -2.92465,2.92898 -1.6119,0 -2.92527,-1.30905 -2.92527,-2.92898 0,-1.61375 1.30781,-2.92898 2.92527,-2.92898 1.61746,0.006 2.92465,1.31523 2.92465,2.92898 z"
     stroke="#04d361"
     stroke-width="1.23612"
     stroke-miterlimit="10"
     stroke-linecap="round"
     stroke-linejoin="round"
     id="path66-4-5-4-3"
     style="fill:#f26d21;fill-opacity:1;stroke:#f26d21;stroke-opacity:1" />
  <path
     d="m 147.56116,8.253432 3.40303,3.40859"
     stroke="#04d361"
     stroke-width="2"
     stroke-miterlimit="10"
     stroke-linecap="round"
     stroke-linejoin="round"
     id="path54-9-9-94"
     style="fill:#f26d21;fill-opacity:1;stroke:#f26d21;stroke-width:2.47224;stroke-miterlimit:10;stroke-dasharray:none;stroke-opacity:1" />
  <path
     d="m 150.96419,8.253432 -3.40303,3.40859"
     stroke="#04d361"
     stroke-width="2"
     stroke-miterlimit="10"
     stroke-linecap="round"
     stroke-linejoin="round"
     id="path56-4-7-1"
     style="fill:#f26d21;fill-opacity:1;stroke:#f26d21;stroke-width:2.47224;stroke-miterlimit:10;stroke-dasharray:none;stroke-opacity:1" />
  <path
     d="m 123.9277,20.757122 3.40303,3.40859"
     stroke="#04d361"
     stroke-width="2"
     stroke-miterlimit="10"
     stroke-linecap="round"
     stroke-linejoin="round"
     id="path54-9-9-8-5"
     style="fill:#f26d21;fill-opacity:1;stroke:#f26d21;stroke-width:2.47224;stroke-miterlimit:10;stroke-dasharray:none;stroke-opacity:1" />
  <path
     d="m 127.33073,20.757122 -3.40303,3.40859"
     stroke="#04d361"
     stroke-width="2"
     stroke-miterlimit="10"
     stroke-linecap="round"
     stroke-linejoin="round"
     id="path56-4-7-5-4"
     style="fill:#f26d21;fill-opacity:1;stroke:#f26d21;stroke-width:2.47224;stroke-miterlimit:10;stroke-dasharray:none;stroke-opacity:1" />
  <path
     d="m 516.43094,46.459324 c 0,1.61437 -1.30719,2.92898 -2.92465,2.92898 -1.6119,0 -2.92528,-1.30905 -2.92528,-2.92898 0,-1.61375 1.30782,-2.92898 2.92528,-2.92898 1.61746,0.006 2.92465,1.31523 2.92465,2.92898 z"
     stroke="#04d361"
     stroke-width="1.23612"
     stroke-miterlimit="10"
     stroke-linecap="round"
     stroke-linejoin="round"
     id="path66-4-1-7-9-0-5"
     style="fill:#f26d21;fill-opacity:1;stroke:#f26d21;stroke-opacity:1" />
  <path
     d="m 504.06976,34.098144 c 0,1.61437 -1.30719,2.92898 -2.92465,2.92898 -1.6119,0 -2.92527,-1.30905 -2.92527,-2.92898 0,-1.61375 1.30781,-2.92898 2.92527,-2.92898 1.61746,0.006 2.92465,1.31523 2.92465,2.92898 z"
     stroke="#04d361"
     stroke-width="1.23612"
     stroke-miterlimit="10"
     stroke-linecap="round"
     stroke-linejoin="round"
     id="path66-4-7-8-8-4"
     style="fill:#f26d21;fill-opacity:1;stroke:#f26d21;stroke-opacity:1" />
  <path
     d="m 492.94471,34.098144 c 0,1.61437 -1.3072,2.92898 -2.92466,2.92898 -1.61189,0 -2.92527,-1.30905 -2.92527,-2.92898 0,-1.61375 1.30781,-2.92898 2.92527,-2.92898 1.61746,0.006 2.92466,1.31523 2.92466,2.92898 z"
     stroke="#04d361"
     stroke-width="1.23612"
     stroke-miterlimit="10"
     stroke-linecap="round"
     stroke-linejoin="round"
     id="path66-4-1-2-8-5-9"
     style="fill:#f26d21;fill-opacity:1;stroke:#f26d21;stroke-opacity:1" />
  <path
     d="m 504.06976,46.459324 c 0,1.61437 -1.30719,2.92898 -2.92465,2.92898 -1.6119,0 -2.92527,-1.30905 -2.92527,-2.92898 0,-1.61375 1.30781,-2.92898 2.92527,-2.92898 1.61746,0.006 2.92465,1.31523 2.92465,2.92898 z"
     stroke="#04d361"
     stroke-width="1.23612"
     stroke-miterlimit="10"
     stroke-linecap="round"
     stroke-linejoin="round"
     id="path66-4-5-4-3-8"
     style="fill:#f26d21;fill-opacity:1;stroke:#f26d21;stroke-opacity:1" />
  <path
     d="m 511.78101,32.417724 3.40303,3.40859"
     stroke="#04d361"
     stroke-width="2"
     stroke-miterlimit="10"
     stroke-linecap="round"
     stroke-linejoin="round"
     id="path54-9-9-94-3"
     style="fill:#f26d21;fill-opacity:1;stroke:#f26d21;stroke-width:2.47224;stroke-miterlimit:10;stroke-dasharray:none;stroke-opacity:1" />
  <path
     d="m 515.18404,32.417724 -3.40303,3.40859"
     stroke="#04d361"
     stroke-width="2"
     stroke-miterlimit="10"
     stroke-linecap="round"
     stroke-linejoin="round"
     id="path56-4-7-1-8"
     style="fill:#f26d21;fill-opacity:1;stroke:#f26d21;stroke-width:2.47224;stroke-miterlimit:10;stroke-dasharray:none;stroke-opacity:1" />
  <path
     d="m 488.14755,44.921414 3.40303,3.40859"
     stroke="#04d361"
     stroke-width="2"
     stroke-miterlimit="10"
     stroke-linecap="round"
     stroke-linejoin="round"
     id="path54-9-9-8-5-5"
     style="fill:#f26d21;fill-opacity:1;stroke:#f26d21;stroke-width:2.47224;stroke-miterlimit:10;stroke-dasharray:none;stroke-opacity:1" />
  <path
     d="m 491.55058,44.921414 -3.40303,3.40859"
     stroke="#04d361"
     stroke-width="2"
     stroke-miterlimit="10"
     stroke-linecap="round"
     stroke-linejoin="round"
     id="path56-4-7-5-4-2"
     style="fill:#f26d21;fill-opacity:1;stroke:#f26d21;stroke-width:2.47224;stroke-miterlimit:10;stroke-dasharray:none;stroke-opacity:1" />
  <path
     d="m 226.83651,330.09032 c 0,1.61437 -1.30719,2.92898 -2.92464,2.92898 -1.6119,0 -2.92528,-1.30905 -2.92528,-2.92898 0,-1.61375 1.30782,-2.92898 2.92528,-2.92898 1.61746,0.006 2.92464,1.31523 2.92464,2.92898 z"
     stroke="#04d361"
     stroke-width="1.23612"
     stroke-miterlimit="10"
     stroke-linecap="round"
     stroke-linejoin="round"
     id="path66-4-3-6-70-2"
     style="fill:#f26d21;fill-opacity:1;stroke:#f26d21;stroke-opacity:1" />
  <path
     d="m 226.83651,342.4515 c 0,1.61437 -1.30719,2.92898 -2.92465,2.92898 -1.6119,0 -2.92527,-1.30905 -2.92527,-2.92898 0,-1.61375 1.30781,-2.92898 2.92527,-2.92898 1.61746,0.006 2.92465,1.31523 2.92465,2.92898 z"
     stroke="#04d361"
     stroke-width="1.23612"
     stroke-miterlimit="10"
     stroke-linecap="round"
     stroke-linejoin="round"
     id="path66-4-3-2-6-2"
     style="fill:#f26d21;fill-opacity:1;stroke:#f26d21;stroke-opacity:1" />
  <path
     d="m 215.71145,342.4515 c 0,1.61437 -1.30719,2.92898 -2.92465,2.92898 -1.6119,0 -2.92528,-1.30905 -2.92528,-2.92898 0,-1.61375 1.30782,-2.92898 2.92528,-2.92898 1.61746,0.006 2.92465,1.31523 2.92465,2.92898 z"
     stroke="#04d361"
     stroke-width="1.23612"
     stroke-miterlimit="10"
     stroke-linecap="round"
     stroke-linejoin="round"
     id="path66-4-1-7-9-0-7"
     style="fill:#f26d21;fill-opacity:1;stroke:#f26d21;stroke-opacity:1" />
  <path
     d="m 203.35027,330.09032 c 0,1.61437 -1.30719,2.92898 -2.92465,2.92898 -1.6119,0 -2.92527,-1.30905 -2.92527,-2.92898 0,-1.61375 1.30781,-2.92898 2.92527,-2.92898 1.61746,0.006 2.92465,1.31523 2.92465,2.92898 z"
     stroke="#04d361"
     stroke-width="1.23612"
     stroke-miterlimit="10"
     stroke-linecap="round"
     stroke-linejoin="round"
     id="path66-4-7-8-8-0"
     style="fill:#f26d21;fill-opacity:1;stroke:#f26d21;stroke-opacity:1" />
  <path
     d="m 192.22522,330.09032 c 0,1.61437 -1.3072,2.92898 -2.92466,2.92898 -1.61189,0 -2.92527,-1.30905 -2.92527,-2.92898 0,-1.61375 1.30781,-2.92898 2.92527,-2.92898 1.61746,0.006 2.92466,1.31523 2.92466,2.92898 z"
     stroke="#04d361"
     stroke-width="1.23612"
     stroke-miterlimit="10"
     stroke-linecap="round"
     stroke-linejoin="round"
     id="path66-4-1-2-8-5-3"
     style="fill:#f26d21;fill-opacity:1;stroke:#f26d21;stroke-opacity:1" />
  <path
     d="m 203.35027,342.4515 c 0,1.61437 -1.30719,2.92898 -2.92465,2.92898 -1.6119,0 -2.92527,-1.30905 -2.92527,-2.92898 0,-1.61375 1.30781,-2.92898 2.92527,-2.92898 1.61746,0.006 2.92465,1.31523 2.92465,2.92898 z"
     stroke="#04d361"
     stroke-width="1.23612"
     stroke-miterlimit="10"
     stroke-linecap="round"
     stroke-linejoin="round"
     id="path66-4-5-4-3-4"
     style="fill:#f26d21;fill-opacity:1;stroke:#f26d21;stroke-opacity:1" />
  <path
     d="m 211.06152,328.4099 3.40303,3.40859"
     stroke="#04d361"
     stroke-width="2"
     stroke-miterlimit="10"
     stroke-linecap="round"
     stroke-linejoin="round"
     id="path54-9-9-94-6"
     style="fill:#f26d21;fill-opacity:1;stroke:#f26d21;stroke-width:2.47224;stroke-miterlimit:10;stroke-dasharray:none;stroke-opacity:1" />
  <path
     d="m 214.46455,328.4099 -3.40303,3.40859"
     stroke="#04d361"
     stroke-width="2"
     stroke-miterlimit="10"
     stroke-linecap="round"
     stroke-linejoin="round"
     id="path56-4-7-1-3"
     style="fill:#f26d21;fill-opacity:1;stroke:#f26d21;stroke-width:2.47224;stroke-miterlimit:10;stroke-dasharray:none;stroke-opacity:1" />
  <path
     d="m 187.42806,340.91359 3.40303,3.40859"
     stroke="#04d361"
     stroke-width="2"
     stroke-miterlimit="10"
     stroke-linecap="round"
     stroke-linejoin="round"
     id="path54-9-9-8-5-6"
     style="fill:#f26d21;fill-opacity:1;stroke:#f26d21;stroke-width:2.47224;stroke-miterlimit:10;stroke-dasharray:none;stroke-opacity:1" />
  <path
     d="m 190.83109,340.91359 -3.40303,3.40859"
     stroke="#04d361"
     stroke-width="2"
     stroke-miterlimit="10"
     stroke-linecap="round"
     stroke-linejoin="round"
     id="path56-4-7-5-4-3"
     style="fill:#f26d21;fill-opacity:1;stroke:#f26d21;stroke-width:2.47224;stroke-miterlimit:10;stroke-dasharray:none;stroke-opacity:1" />
</svg>
